<?xml version="1.0" encoding="utf-8"?>
<!-- Generator: Adobe Illustrator 19.1.0, SVG Export Plug-In . SVG Version: 6.00 Build 0)  -->
<svg version="1.1" id="Capa_1" xmlns="http://www.w3.org/2000/svg" xmlns:xlink="http://www.w3.org/1999/xlink" x="0px" y="0px"
	 viewBox="2495 292.5 701 319" style="enable-background:new 2495 292.5 701 319;" xml:space="preserve">
<style type="text/css">
	.st0{fill:#1E6399;}
	.st1{fill:#F3EEE2;}
	.st2{fill:#173D6B;}
	.st3{fill:#2F7BEA;}
	.st4{fill:#161B41;stroke:#F3EEE2;stroke-width:2;stroke-miterlimit:10;}
	.st5{fill:none;stroke:#F3EEE2;stroke-width:2;stroke-miterlimit:10;}
	.st6{fill:none;stroke:#A0AEA6;stroke-width:2;stroke-miterlimit:10;}
	.st7{display:none;}
	.st8{fill:#7C291E;}
	.st9{fill:#BC4428;}
	.st10{fill:#F15A29;}
	.st11{opacity:0.5;}
	.st12{fill:#AF7333;}
	.st13{fill:#C68638;}
	.st14{fill:#96602F;}
	.st15{fill:#7C4E28;}
	.st16{fill:#E59C3C;}
	.st17{fill:#FBB040;}
	.st18{fill:#B3CF50;}
	.st19{fill:#A5BA4A;}
	.st20{fill:#C8E25A;}
	.st21{fill:#92A040;}
	.st22{fill:#7B8236;}
	.st23{fill:#E9F766;}
	.st24{fill:#147C68;}
	.st25{fill:#17977F;}
	.st26{opacity:0.41;clip-path:url(#SVGID_2_);}
	.st27{fill:#FFFFFF;}
	.st28{opacity:0.41;clip-path:url(#SVGID_4_);}
	.st29{opacity:0.41;clip-path:url(#SVGID_6_);}
	.st30{fill:#115E4F;}
	.st31{fill:#2DA890;}
	.st32{fill:#29917D;}
	.st33{fill:#34BFA8;}
	.st34{fill:#38D9C3;}
	.st35{fill:#3FEFD1;}
	.st36{opacity:0.3;fill:#FFFFFF;}
	.st37{opacity:0.6;fill:#2DA890;}
	.st38{fill:#1BAFA5;}
	.st39{fill:#1A998C;}
	.st40{opacity:0.6;fill:#1A998C;}
	.st41{fill:#20A595;}
	.st42{fill:#1A897C;}
	.st43{fill:#198477;}
	.st44{fill:#21CCBB;}
	.st45{opacity:0.4;fill:#1A998C;}
	.st46{fill:#104D5E;}
	.st47{fill:#1E5C72;}
	.st48{fill:#236D8E;}
	.st49{fill:#287DAA;}
	.st50{fill:#2E93BF;}
	.st51{opacity:0.31;}
	.st52{fill:#443C86;}
	.st53{fill:#1F1F49;}
	.st54{opacity:0.47;}
	.st55{fill:#5652AA;}
	.st56{fill:#2C2C59;}
	.st57{fill:#373570;}
	.st58{fill:#641E66;}
	.st59{fill:#92278F;}
	.st60{fill:#7C237C;}
	.st61{fill:#461749;}
	.st62{fill:#DA1C5C;}
	.st63{fill:#C61C5D;}
	.st64{fill:#B21D59;}
	.st65{fill:#821A4E;}
	.st66{fill:#991D56;}
</style>
<g>
	<rect x="2534.5" y="472.8" class="st58" width="623.2" height="138.7"/>
	<rect x="2717.5" y="423.4" class="st59" width="257.1" height="188.1"/>
	<rect x="3123.2" y="452.7" class="st60" width="66.1" height="158.8"/>
	<rect x="3116.6" y="433.3" class="st58" width="79.4" height="19.7"/>
	<g>
		<path class="st58" d="M2846.1,326c-56.2,0-103.3,23.9-115.9,78.1h231.6C2949,350.2,2902.1,326,2846.1,326z"/>
	</g>
	<g>
		<rect x="2582.1" y="506.7" class="st61" width="23.4" height="70.9"/>
		<rect x="2627.9" y="506.7" class="st61" width="23.4" height="70.9"/>
		<rect x="2673.7" y="506.7" class="st61" width="23.4" height="70.9"/>
	</g>
	<g>
		<rect x="2991.6" y="506.7" class="st61" width="23.4" height="70.9"/>
		<rect x="3037.4" y="506.7" class="st61" width="23.4" height="70.9"/>
		<rect x="3083.2" y="506.7" class="st61" width="23.4" height="70.9"/>
	</g>
	<g>
		<rect x="2764.9" y="460.4" class="st58" width="19.3" height="77.5"/>
		<rect x="2801.1" y="460.4" class="st58" width="19.3" height="77.5"/>
		<rect x="2837.3" y="460.4" class="st58" width="19.3" height="77.5"/>
		<rect x="2873.5" y="460.4" class="st58" width="19.3" height="77.5"/>
		<rect x="2909.7" y="460.4" class="st58" width="19.3" height="77.5"/>
	</g>
	<polygon class="st60" points="2706.4,404.1 2706.4,443.2 2730.2,443.2 2730.2,611.5 2742.7,611.5 2742.7,443.2 2803.3,443.2 
		2803.3,611.5 2815.8,611.5 2815.8,443.2 2876.3,443.2 2876.3,611.5 2888.8,611.5 2888.8,443.2 2949.4,443.2 2949.4,611.5 
		2961.9,611.5 2961.9,443.2 2985.7,443.2 2985.7,404.1 	"/>
	<rect x="2501.6" y="452.7" class="st60" width="66.1" height="158.8"/>
	<rect x="2495" y="433.3" class="st58" width="79.4" height="19.7"/>
</g>
</svg>
