<?xml version="1.0" encoding="utf-8"?>
<!-- Generator: Adobe Illustrator 19.1.0, SVG Export Plug-In . SVG Version: 6.00 Build 0)  -->
<svg version="1.1" id="Capa_1" xmlns="http://www.w3.org/2000/svg" xmlns:xlink="http://www.w3.org/1999/xlink" x="0px" y="0px"
	 viewBox="251 -59 701 319" style="enable-background:new 251 -59 701 319;" xml:space="preserve">
<style type="text/css">
	.st0{fill:#1E6399;}
	.st1{fill:#F3EEE2;}
	.st2{fill:#173D6B;}
	.st3{fill:#2F7BEA;}
	.st4{fill:#161B41;stroke:#F3EEE2;stroke-width:2;stroke-miterlimit:10;}
	.st5{fill:none;stroke:#F3EEE2;stroke-width:2;stroke-miterlimit:10;}
	.st6{fill:none;stroke:#A0AEA6;stroke-width:2;stroke-miterlimit:10;}
	.st7{display:none;}
	.st8{fill:#7C291E;}
	.st9{fill:#BC4428;}
	.st10{fill:#F15A29;}
	.st11{opacity:0.5;}
	.st12{fill:#AF7333;}
	.st13{fill:#C68638;}
	.st14{fill:#96602F;}
	.st15{fill:#7C4E28;}
	.st16{fill:#E59C3C;}
	.st17{fill:#FBB040;}
	.st18{fill:#B3CF50;}
	.st19{fill:#A5BA4A;}
	.st20{fill:#C8E25A;}
	.st21{fill:#92A040;}
	.st22{fill:#7B8236;}
	.st23{fill:#E9F766;}
	.st24{fill:#147C68;}
	.st25{fill:#17977F;}
	.st26{opacity:0.41;clip-path:url(#SVGID_2_);}
	.st27{fill:#FFFFFF;}
	.st28{opacity:0.41;clip-path:url(#SVGID_4_);}
	.st29{opacity:0.41;clip-path:url(#SVGID_6_);}
	.st30{fill:#115E4F;}
	.st31{fill:#2DA890;}
	.st32{fill:#29917D;}
	.st33{fill:#34BFA8;}
	.st34{fill:#38D9C3;}
	.st35{fill:#3FEFD1;}
	.st36{opacity:0.3;fill:#FFFFFF;}
	.st37{opacity:0.6;fill:#2DA890;}
	.st38{fill:#1BAFA5;}
	.st39{fill:#1A998C;}
	.st40{opacity:0.6;fill:#1A998C;}
	.st41{fill:#20A595;}
	.st42{fill:#1A897C;}
	.st43{fill:#198477;}
	.st44{fill:#21CCBB;}
	.st45{opacity:0.4;fill:#1A998C;}
	.st46{fill:#104D5E;}
	.st47{fill:#1E5C72;}
	.st48{fill:#236D8E;}
	.st49{fill:#287DAA;}
	.st50{fill:#2E93BF;}
	.st51{opacity:0.31;}
	.st52{fill:#443C86;}
	.st53{fill:#1F1F49;}
	.st54{opacity:0.47;}
	.st55{fill:#5652AA;}
	.st56{fill:#2C2C59;}
	.st57{fill:#373570;}
	.st58{fill:#641E66;}
	.st59{fill:#92278F;}
	.st60{fill:#7C237C;}
	.st61{fill:#461749;}
	.st62{fill:#DA1C5C;}
	.st63{fill:#C61C5D;}
	.st64{fill:#B21D59;}
	.st65{fill:#821A4E;}
	.st66{fill:#991D56;}
</style>
<g>
	<rect x="777.1" y="-36.5" class="st8" width="75.9" height="42.1"/>
	<path class="st9" d="M337.1-15c0,0,370.7-15.8,447.5-44l-0.2,71.7l-447.4-2.7V-15z"/>
	<rect x="288.4" y="-1.7" class="st10" width="626.1" height="194.9"/>
	<rect x="307.4" y="191" class="st9" width="588.3" height="68.3"/>
	<g class="st11">
		<rect x="307.4" y="15.6" class="st8" width="53.8" height="20.5"/>
		<rect x="383.7" y="15.6" class="st8" width="53.8" height="20.5"/>
		<rect x="460.1" y="15.6" class="st8" width="53.8" height="20.5"/>
		<rect x="536.4" y="15.6" class="st8" width="53.8" height="20.5"/>
		<rect x="612.8" y="15.6" class="st8" width="53.8" height="20.5"/>
		<rect x="689.1" y="15.6" class="st8" width="53.8" height="20.5"/>
		<rect x="765.5" y="15.6" class="st8" width="53.8" height="20.5"/>
		<rect x="841.9" y="15.6" class="st8" width="53.8" height="20.5"/>
		<rect x="307.4" y="58.7" class="st8" width="53.8" height="20.5"/>
		<rect x="383.7" y="58.7" class="st8" width="53.8" height="20.5"/>
		<rect x="460.1" y="58.7" class="st8" width="53.8" height="20.5"/>
		<rect x="536.4" y="58.7" class="st8" width="53.8" height="20.5"/>
		<rect x="612.8" y="58.7" class="st8" width="53.8" height="20.5"/>
		<rect x="689.1" y="58.7" class="st8" width="53.8" height="20.5"/>
		<rect x="765.5" y="58.7" class="st8" width="53.8" height="20.5"/>
		<rect x="841.9" y="58.7" class="st8" width="53.8" height="20.5"/>
		<rect x="307.4" y="101.7" class="st8" width="53.8" height="20.5"/>
		<rect x="383.7" y="101.7" class="st8" width="53.8" height="20.5"/>
		<rect x="460.1" y="101.7" class="st8" width="53.8" height="20.5"/>
		<rect x="536.4" y="101.7" class="st8" width="53.8" height="20.5"/>
		<rect x="612.8" y="101.7" class="st8" width="53.8" height="20.5"/>
		<rect x="689.1" y="101.7" class="st8" width="53.8" height="20.5"/>
		<rect x="765.5" y="101.7" class="st8" width="53.8" height="20.5"/>
		<rect x="841.9" y="101.7" class="st8" width="53.8" height="20.5"/>
		<rect x="307.4" y="144.8" class="st8" width="53.8" height="20.5"/>
		<rect x="383.7" y="144.8" class="st8" width="53.8" height="20.5"/>
		<rect x="460.1" y="144.8" class="st8" width="53.8" height="20.5"/>
		<rect x="536.4" y="144.8" class="st8" width="53.8" height="20.5"/>
		<rect x="612.8" y="144.8" class="st8" width="53.8" height="20.5"/>
		<rect x="689.1" y="144.8" class="st8" width="53.8" height="20.5"/>
		<rect x="765.5" y="144.8" class="st8" width="53.8" height="20.5"/>
		<rect x="841.9" y="144.8" class="st8" width="53.8" height="20.5"/>
	</g>
	<rect x="351.5" y="191" class="st8" width="8.3" height="69"/>
	<rect x="413.1" y="191" class="st8" width="8.3" height="69"/>
	<rect x="474.8" y="191" class="st8" width="8.3" height="69"/>
	<rect x="536.4" y="191" class="st8" width="8.3" height="69"/>
	<rect x="598.1" y="191" class="st8" width="8.3" height="69"/>
	<rect x="659.7" y="191" class="st8" width="8.3" height="69"/>
	<rect x="721.4" y="191" class="st8" width="8.3" height="69"/>
	<rect x="783.1" y="191" class="st8" width="8.3" height="69"/>
	<rect x="844.7" y="191" class="st8" width="8.3" height="69"/>
</g>
</svg>
