<svg xmlns="http://www.w3.org/2000/svg" xmlns:xlink="http://www.w3.org/1999/xlink" id="Capa_1" x="0" y="0" enable-background="new 998.5 292.5 701 319" version="1.1" viewBox="998.5 292.5 701 319" xml:space="preserve"><style type="text/css">.st46{fill:#104d5e}.st47{fill:#1e5c72}.st48{fill:#236d8e}.st49{fill:#287daa}.st50{fill:#2e93bf}.st51{opacity:.31}</style><g><rect width="600.8" height="207" x="1048.6" y="404.5" class="st46"/><rect width="528.2" height="256.6" x="1084.9" y="354.9" class="st47"/><rect width="469.5" height="318.4" x="1114.2" y="293.1" class="st48"/><rect width="339.9" height="139.5" x="1179" y="471.9" class="st49"/><rect width="216.1" height="84.4" x="1241" y="527.1" class="st50"/><rect width="8.3" height="88.9" x="1241" y="522.6" class="st48"/><rect width="8.3" height="88.9" x="1448.7" y="522.6" class="st48"/><rect width="289.9" height="8.3" x="1204" y="520" class="st48"/><g class="st51"><rect width="34.3" height="33.2" x="1134.2" y="309.5" class="st48"/><rect width="34.3" height="33.2" x="1173.9" y="309.5" class="st48"/><rect width="34.3" height="33.2" x="1213.6" y="309.5" class="st48"/><rect width="34.3" height="33.2" x="1253.3" y="309.5" class="st48"/><rect width="34.3" height="33.2" x="1293" y="309.5" class="st48"/><rect width="34.3" height="33.2" x="1332.6" y="309.5" class="st48"/><rect width="34.3" height="33.2" x="1372.3" y="309.5" class="st48"/><rect width="34.3" height="33.2" x="1412" y="309.5" class="st48"/><rect width="34.3" height="33.2" x="1451.7" y="309.5" class="st48"/><rect width="34.3" height="33.2" x="1491.4" y="309.5" class="st48"/><rect width="34.3" height="33.2" x="1531.1" y="309.5" class="st48"/><rect width="34.3" height="33.2" x="1134.2" y="364.3" class="st48"/><rect width="34.3" height="33.2" x="1173.9" y="364.3" class="st48"/><rect width="34.3" height="33.2" x="1213.6" y="364.3" class="st48"/><rect width="34.3" height="33.2" x="1253.3" y="364.3" class="st48"/><rect width="34.3" height="33.2" x="1293" y="364.3" class="st48"/><rect width="34.3" height="33.2" x="1332.6" y="364.3" class="st48"/><rect width="34.3" height="33.2" x="1372.3" y="364.3" class="st48"/><rect width="34.3" height="33.2" x="1412" y="364.3" class="st48"/><rect width="34.3" height="33.2" x="1451.7" y="364.3" class="st48"/><rect width="34.3" height="33.2" x="1491.4" y="364.3" class="st48"/><rect width="34.3" height="33.2" x="1531.1" y="364.3" class="st48"/><rect width="34.3" height="33.2" x="1134.2" y="419.1" class="st48"/><rect width="34.3" height="33.2" x="1173.9" y="419.1" class="st48"/><rect width="34.3" height="33.2" x="1213.6" y="419.1" class="st48"/><rect width="34.3" height="33.2" x="1253.3" y="419.1" class="st48"/><rect width="34.3" height="33.2" x="1293" y="419.1" class="st48"/><rect width="34.3" height="33.2" x="1332.6" y="419.1" class="st48"/><rect width="34.3" height="33.2" x="1372.3" y="419.1" class="st48"/><rect width="34.3" height="33.2" x="1412" y="419.1" class="st48"/><rect width="34.3" height="33.2" x="1451.7" y="419.1" class="st48"/><rect width="34.3" height="33.2" x="1491.4" y="419.1" class="st48"/><rect width="34.3" height="33.2" x="1531.1" y="419.1" class="st48"/></g></g></svg>