<?xml version="1.0" encoding="utf-8"?>
<!-- Generator: Adobe Illustrator 19.1.0, SVG Export Plug-In . SVG Version: 6.00 Build 0)  -->
<svg version="1.1" id="Capa_1" xmlns="http://www.w3.org/2000/svg" xmlns:xlink="http://www.w3.org/1999/xlink" x="0px" y="0px"
	 viewBox="3237.9 -59 701 319" style="enable-background:new 3237.9 -59 701 319;" xml:space="preserve">
<style type="text/css">
	.st0{fill:#1E6399;}
	.st1{fill:#F3EEE2;}
	.st2{fill:#173D6B;}
	.st3{fill:#2F7BEA;}
	.st4{fill:#161B41;stroke:#F3EEE2;stroke-width:2;stroke-miterlimit:10;}
	.st5{fill:none;stroke:#F3EEE2;stroke-width:2;stroke-miterlimit:10;}
	.st6{fill:none;stroke:#A0AEA6;stroke-width:2;stroke-miterlimit:10;}
	.st7{display:none;}
	.st8{fill:#7C291E;}
	.st9{fill:#BC4428;}
	.st10{fill:#F15A29;}
	.st11{opacity:0.5;}
	.st12{fill:#AF7333;}
	.st13{fill:#C68638;}
	.st14{fill:#96602F;}
	.st15{fill:#7C4E28;}
	.st16{fill:#E59C3C;}
	.st17{fill:#FBB040;}
	.st18{fill:#B3CF50;}
	.st19{fill:#A5BA4A;}
	.st20{fill:#C8E25A;}
	.st21{fill:#92A040;}
	.st22{fill:#7B8236;}
	.st23{fill:#E9F766;}
	.st24{fill:#147C68;}
	.st25{fill:#17977F;}
	.st26{opacity:0.41;clip-path:url(#SVGID_2_);}
	.st27{fill:#FFFFFF;}
	.st28{opacity:0.41;clip-path:url(#SVGID_4_);}
	.st29{opacity:0.41;clip-path:url(#SVGID_6_);}
	.st30{fill:#115E4F;}
	.st31{fill:#2DA890;}
	.st32{fill:#29917D;}
	.st33{fill:#34BFA8;}
	.st34{fill:#38D9C3;}
	.st35{fill:#3FEFD1;}
	.st36{opacity:0.3;fill:#FFFFFF;}
	.st37{opacity:0.6;fill:#2DA890;}
	.st38{fill:#1BAFA5;}
	.st39{fill:#1A998C;}
	.st40{opacity:0.6;fill:#1A998C;}
	.st41{fill:#20A595;}
	.st42{fill:#1A897C;}
	.st43{fill:#198477;}
	.st44{fill:#21CCBB;}
	.st45{opacity:0.4;fill:#1A998C;}
	.st46{fill:#104D5E;}
	.st47{fill:#1E5C72;}
	.st48{fill:#236D8E;}
	.st49{fill:#287DAA;}
	.st50{fill:#2E93BF;}
	.st51{opacity:0.31;}
	.st52{fill:#443C86;}
	.st53{fill:#1F1F49;}
	.st54{opacity:0.47;}
	.st55{fill:#5652AA;}
	.st56{fill:#2C2C59;}
	.st57{fill:#373570;}
	.st58{fill:#641E66;}
	.st59{fill:#92278F;}
	.st60{fill:#7C237C;}
	.st61{fill:#461749;}
	.st62{fill:#DA1C5C;}
	.st63{fill:#C61C5D;}
	.st64{fill:#B21D59;}
	.st65{fill:#821A4E;}
	.st66{fill:#991D56;}
</style>
<g>
	<g>
		<rect x="3507.2" y="3.4" class="st31" width="4.9" height="8.4"/>
		<rect x="3507.2" y="23.7" class="st31" width="4.9" height="8.4"/>
		<rect x="3507.2" y="44" class="st31" width="4.9" height="8.4"/>
		<rect x="3507.2" y="64.2" class="st31" width="4.9" height="8.4"/>
		<rect x="3507.2" y="84.5" class="st31" width="4.9" height="8.4"/>
		<rect x="3507.2" y="104.7" class="st31" width="4.9" height="8.4"/>
		<rect x="3507.2" y="125" class="st31" width="4.9" height="8.4"/>
		<rect x="3507.2" y="145.2" class="st31" width="4.9" height="8.4"/>
	</g>
	<rect x="3525.4" y="68" class="st31" width="210.1" height="32"/>
	<rect x="3538.8" y="100" class="st32" width="182.4" height="159"/>
	<rect x="3465.7" y="3.4" class="st33" width="41.4" height="255.5"/>
	<rect x="3470.6" y="9.1" class="st31" width="18.2" height="16.9"/>
	<rect x="3470.6" y="35.5" class="st31" width="18.2" height="16.9"/>
	<rect x="3470.6" y="62.1" class="st31" width="18.2" height="16.9"/>
	<rect x="3470.6" y="87.8" class="st31" width="18.2" height="16.9"/>
	<rect x="3470.6" y="114.3" class="st31" width="18.2" height="16.9"/>
	<rect x="3470.6" y="145.3" class="st31" width="18.2" height="16.9"/>
	<rect x="3429.2" y="-59" class="st34" width="41.4" height="318"/>
	<rect x="3721.3" y="-28.6" class="st33" width="41.4" height="287.6"/>
	<rect x="3414.1" y="139.9" class="st35" width="348.5" height="119"/>
	<rect x="3588.4" y="163.5" class="st36" width="174.3" height="95.5"/>
	<circle class="st37" cx="3449.9" cy="-36.4" r="16.5"/>
	<circle class="st37" cx="3742" cy="0.4" r="11.2"/>
	<circle class="st37" cx="3742" cy="39.3" r="11.2"/>
	<circle class="st37" cx="3742" cy="78.2" r="11.2"/>
	<circle class="st37" cx="3742" cy="117.1" r="11.2"/>
	<rect x="3573.8" y="153.7" class="st34" width="188.9" height="13.6"/>
	<g>
		<rect x="3557.8" y="105.9" class="st34" width="27.9" height="27.9"/>
		<rect x="3597.1" y="105.9" class="st34" width="27.9" height="27.9"/>
		<rect x="3636" y="105.9" class="st34" width="27.9" height="27.9"/>
		<rect x="3674.2" y="105.9" class="st34" width="27.9" height="27.9"/>
	</g>
</g>
</svg>
