<?xml version="1.0" encoding="utf-8"?>
<!-- Generator: Adobe Illustrator 19.1.0, SVG Export Plug-In . SVG Version: 6.00 Build 0)  -->
<svg version="1.1" id="Capa_1" xmlns="http://www.w3.org/2000/svg" xmlns:xlink="http://www.w3.org/1999/xlink" x="0px" y="0px"
	 viewBox="1745.2 292.5 701 319" style="enable-background:new 1745.2 292.5 701 319;" xml:space="preserve">
<style type="text/css">
	.st0{fill:#1E6399;}
	.st1{fill:#F3EEE2;}
	.st2{fill:#173D6B;}
	.st3{fill:#2F7BEA;}
	.st4{fill:#161B41;stroke:#F3EEE2;stroke-width:2;stroke-miterlimit:10;}
	.st5{fill:none;stroke:#F3EEE2;stroke-width:2;stroke-miterlimit:10;}
	.st6{fill:none;stroke:#A0AEA6;stroke-width:2;stroke-miterlimit:10;}
	.st7{display:none;}
	.st8{fill:#7C291E;}
	.st9{fill:#BC4428;}
	.st10{fill:#F15A29;}
	.st11{opacity:0.5;}
	.st12{fill:#AF7333;}
	.st13{fill:#C68638;}
	.st14{fill:#96602F;}
	.st15{fill:#7C4E28;}
	.st16{fill:#E59C3C;}
	.st17{fill:#FBB040;}
	.st18{fill:#B3CF50;}
	.st19{fill:#A5BA4A;}
	.st20{fill:#C8E25A;}
	.st21{fill:#92A040;}
	.st22{fill:#7B8236;}
	.st23{fill:#E9F766;}
	.st24{fill:#147C68;}
	.st25{fill:#17977F;}
	.st26{opacity:0.41;clip-path:url(#SVGID_2_);}
	.st27{fill:#FFFFFF;}
	.st28{opacity:0.41;clip-path:url(#SVGID_4_);}
	.st29{opacity:0.41;clip-path:url(#SVGID_6_);}
	.st30{fill:#115E4F;}
	.st31{fill:#2DA890;}
	.st32{fill:#29917D;}
	.st33{fill:#34BFA8;}
	.st34{fill:#38D9C3;}
	.st35{fill:#3FEFD1;}
	.st36{opacity:0.3;fill:#FFFFFF;}
	.st37{opacity:0.6;fill:#2DA890;}
	.st38{fill:#1BAFA5;}
	.st39{fill:#1A998C;}
	.st40{opacity:0.6;fill:#1A998C;}
	.st41{fill:#20A595;}
	.st42{fill:#1A897C;}
	.st43{fill:#198477;}
	.st44{fill:#21CCBB;}
	.st45{opacity:0.4;fill:#1A998C;}
	.st46{fill:#104D5E;}
	.st47{fill:#1E5C72;}
	.st48{fill:#236D8E;}
	.st49{fill:#287DAA;}
	.st50{fill:#2E93BF;}
	.st51{opacity:0.31;}
	.st52{fill:#443C86;}
	.st53{fill:#1F1F49;}
	.st54{opacity:0.47;}
	.st55{fill:#5652AA;}
	.st56{fill:#2C2C59;}
	.st57{fill:#373570;}
	.st58{fill:#641E66;}
	.st59{fill:#92278F;}
	.st60{fill:#7C237C;}
	.st61{fill:#461749;}
	.st62{fill:#DA1C5C;}
	.st63{fill:#C61C5D;}
	.st64{fill:#B21D59;}
	.st65{fill:#821A4E;}
	.st66{fill:#991D56;}
</style>
<g>
	<path class="st52" d="M2349.5,486.5l-127.7-51.9h-116.8c0,0-13.7,3.6-13.1,16.1l195.4,49.4L2349.5,486.5z"/>
	<path class="st53" d="M2071.7,447.6c0,0,51.8-17.1,92.8,0c0,0,71,59.4,251.3,18.4l30.5,82.7v19.7h-374.5V447.6z"/>
	<g class="st54">
		<rect x="2187.3" y="505.4" class="st55" width="12.3" height="12.3"/>
		<rect x="2235.7" y="505.4" class="st55" width="11.9" height="11.9"/>
		<rect x="2282.2" y="505.4" class="st55" width="12.6" height="12.6"/>
	</g>
	<g class="st54">
		<rect x="2211.9" y="505.4" class="st55" width="12.3" height="12.3"/>
		<rect x="2260.4" y="505.4" class="st55" width="11.9" height="11.9"/>
		<rect x="2306.8" y="505.4" class="st55" width="12.6" height="12.6"/>
	</g>
	<path class="st52" d="M2020.1,427.8c0,0,1.1-4.1,12.3-4.1l31.7,20.5l-44,12.3V427.8z"/>
	<path class="st56" d="M2008.1,465.4v114.8l270.4-6.9l-18.4-53.9c0,0-136.6-12.3-192.5-79.2C2067.5,440.1,2019,433.3,2008.1,465.4z"
		/>
	<polygon class="st56" points="2012.2,410.7 2012.2,447.6 1876.2,490.8 1927.5,414.2 	"/>
	<polygon class="st53" points="2025.2,440.1 1964.9,440.1 1825.1,520 1781.8,518.7 1745.2,562.1 1745.2,579.6 2025.2,579.6 	"/>
	<polygon class="st57" points="1860.1,554.3 1745.2,562.1 1787.7,511.7 1860.1,511.7 	"/>
	<rect x="1853.3" y="515.1" class="st52" width="141" height="35.9"/>
	<g>
		<rect x="1870.1" y="524.9" class="st55" width="12.3" height="12.3"/>
		<rect x="1918.5" y="524.9" class="st55" width="11.9" height="11.9"/>
		<rect x="1964.9" y="524.9" class="st55" width="12.6" height="12.6"/>
	</g>
	<g>
		<rect x="1894.7" y="524.9" class="st55" width="12.3" height="12.3"/>
		<rect x="1943.1" y="524.9" class="st55" width="11.9" height="11.9"/>
		<rect x="1989.6" y="524.9" class="st55" width="12.6" height="12.6"/>
	</g>
	<g class="st54">
		<rect x="2038.1" y="511.7" class="st55" width="12.3" height="12.3"/>
		<rect x="2086.5" y="511.7" class="st55" width="11.9" height="11.9"/>
		<rect x="2132.9" y="511.7" class="st55" width="12.6" height="12.6"/>
	</g>
	<g class="st54">
		<rect x="2062.7" y="511.7" class="st55" width="12.3" height="12.3"/>
		<rect x="2111.1" y="511.7" class="st55" width="11.9" height="11.9"/>
		<rect x="2157.5" y="511.7" class="st55" width="12.6" height="12.6"/>
	</g>
	<path class="st52" d="M1789.1,537.2h-3.6c-0.4,0-0.7-0.3-0.7-0.7v-8.3c0-0.4,0.3-0.7,0.7-0.7h3.6c0.4,0,0.7,0.3,0.7,0.7v8.3
		C1789.8,536.8,1789.5,537.2,1789.1,537.2z"/>
	<path class="st52" d="M1803.4,537.2h-3.6c-0.4,0-0.7-0.3-0.7-0.7v-8.3c0-0.4,0.3-0.7,0.7-0.7h3.6c0.4,0,0.7,0.3,0.7,0.7v8.3
		C1804.1,536.8,1803.8,537.2,1803.4,537.2z"/>
	<path class="st52" d="M1817.6,537.2h-3.6c-0.4,0-0.7-0.3-0.7-0.7v-8.3c0-0.4,0.3-0.7,0.7-0.7h3.6c0.4,0,0.7,0.3,0.7,0.7v8.3
		C1818.3,536.8,1818,537.2,1817.6,537.2z"/>
	<path class="st52" d="M1833.2,537.2h-3.6c-0.4,0-0.7-0.3-0.7-0.7v-8.3c0-0.4,0.3-0.7,0.7-0.7h3.6c0.4,0,0.7,0.3,0.7,0.7v8.3
		C1833.9,536.8,1833.6,537.2,1833.2,537.2z"/>
	<path class="st52" d="M1847.5,537.2h-3.6c-0.4,0-0.7-0.3-0.7-0.7v-8.3c0-0.4,0.3-0.7,0.7-0.7h3.6c0.4,0,0.7,0.3,0.7,0.7v8.3
		C1848.2,536.8,1847.9,537.2,1847.5,537.2z"/>
	<path class="st55" d="M1745.2,579.6h40.4l2.5-11.3c0,0,262.7,7.7,474.6-19.5h183.5v62.8h-701V579.6z"/>
	<rect x="1990.9" y="511.2" class="st57" width="68.8" height="42.6"/>
	<path class="st52" d="M2014,537.5h-3.6c-0.4,0-0.7-0.3-0.7-0.7v-8.3c0-0.4,0.3-0.7,0.7-0.7h3.6c0.4,0,0.7,0.3,0.7,0.7v8.3
		C2014.7,537.2,2014.3,537.5,2014,537.5z"/>
	<path class="st52" d="M2028.2,537.5h-3.6c-0.4,0-0.7-0.3-0.7-0.7v-8.3c0-0.4,0.3-0.7,0.7-0.7h3.6c0.4,0,0.7,0.3,0.7,0.7v8.3
		C2028.9,537.2,2028.6,537.5,2028.2,537.5z"/>
	<path class="st52" d="M2042.4,537.5h-3.6c-0.4,0-0.7-0.3-0.7-0.7v-8.3c0-0.4,0.3-0.7,0.7-0.7h3.6c0.4,0,0.7,0.3,0.7,0.7v8.3
		C2043.1,537.2,2042.8,537.5,2042.4,537.5z"/>
</g>
</svg>
