<?xml version="1.0" encoding="utf-8"?>
<!-- Generator: Adobe Illustrator 19.1.0, SVG Export Plug-In . SVG Version: 6.00 Build 0)  -->
<svg version="1.1" id="Capa_1" xmlns="http://www.w3.org/2000/svg" xmlns:xlink="http://www.w3.org/1999/xlink" x="0px" y="0px"
	 viewBox="998.5 -59 701 319" style="enable-background:new 998.5 -59 701 319;" xml:space="preserve">
<style type="text/css">
	.st0{fill:#1E6399;}
	.st1{fill:#F3EEE2;}
	.st2{fill:#173D6B;}
	.st3{fill:#2F7BEA;}
	.st4{fill:#161B41;stroke:#F3EEE2;stroke-width:2;stroke-miterlimit:10;}
	.st5{fill:none;stroke:#F3EEE2;stroke-width:2;stroke-miterlimit:10;}
	.st6{fill:none;stroke:#A0AEA6;stroke-width:2;stroke-miterlimit:10;}
	.st7{display:none;}
	.st8{fill:#7C291E;}
	.st9{fill:#BC4428;}
	.st10{fill:#F15A29;}
	.st11{opacity:0.5;}
	.st12{fill:#AF7333;}
	.st13{fill:#C68638;}
	.st14{fill:#96602F;}
	.st15{fill:#7C4E28;}
	.st16{fill:#E59C3C;}
	.st17{fill:#FBB040;}
	.st18{fill:#B3CF50;}
	.st19{fill:#A5BA4A;}
	.st20{fill:#C8E25A;}
	.st21{fill:#92A040;}
	.st22{fill:#7B8236;}
	.st23{fill:#E9F766;}
	.st24{fill:#147C68;}
	.st25{fill:#17977F;}
	.st26{opacity:0.41;clip-path:url(#SVGID_2_);}
	.st27{fill:#FFFFFF;}
	.st28{opacity:0.41;clip-path:url(#SVGID_4_);}
	.st29{opacity:0.41;clip-path:url(#SVGID_6_);}
	.st30{fill:#115E4F;}
	.st31{fill:#2DA890;}
	.st32{fill:#29917D;}
	.st33{fill:#34BFA8;}
	.st34{fill:#38D9C3;}
	.st35{fill:#3FEFD1;}
	.st36{opacity:0.3;fill:#FFFFFF;}
	.st37{opacity:0.6;fill:#2DA890;}
	.st38{fill:#1BAFA5;}
	.st39{fill:#1A998C;}
	.st40{opacity:0.6;fill:#1A998C;}
	.st41{fill:#20A595;}
	.st42{fill:#1A897C;}
	.st43{fill:#198477;}
	.st44{fill:#21CCBB;}
	.st45{opacity:0.4;fill:#1A998C;}
	.st46{fill:#104D5E;}
	.st47{fill:#1E5C72;}
	.st48{fill:#236D8E;}
	.st49{fill:#287DAA;}
	.st50{fill:#2E93BF;}
	.st51{opacity:0.31;}
	.st52{fill:#443C86;}
	.st53{fill:#1F1F49;}
	.st54{opacity:0.47;}
	.st55{fill:#5652AA;}
	.st56{fill:#2C2C59;}
	.st57{fill:#373570;}
	.st58{fill:#641E66;}
	.st59{fill:#92278F;}
	.st60{fill:#7C237C;}
	.st61{fill:#461749;}
	.st62{fill:#DA1C5C;}
	.st63{fill:#C61C5D;}
	.st64{fill:#B21D59;}
	.st65{fill:#821A4E;}
	.st66{fill:#991D56;}
</style>
<g>
	<polygon class="st12" points="1423.6,-54.6 1423.6,-46 1412.6,-46 1412.6,-54.6 1403.8,-54.6 1403.8,-46 1392.9,-46 1392.9,-54.6 
		1384.1,-54.6 1384.1,-46 1373.1,-46 1373.1,-54.6 1364.4,-54.6 1364.4,-46 1353.4,-46 1353.4,-54.6 1344.6,-54.6 1344.6,-46 
		1333.6,-46 1333.6,-54.6 1324.9,-54.6 1324.9,-46 1313.9,-46 1313.9,-54.6 1305.1,-54.6 1305.1,-46 1294.2,-46 1294.2,-54.6 
		1285.4,-54.6 1285.4,-46 1274.4,-46 1274.4,-54.6 1265.7,-54.6 1265.7,-44.1 1265.7,-44.1 1265.7,91.9 1432.3,91.9 1432.3,-44.1 
		1432.3,-46 1432.3,-54.6 	"/>
	<path class="st13" d="M1347.7,5.3c-19,0-34.4,15.4-34.4,34.4v58.6h68.8V39.7C1382.1,20.7,1366.7,5.3,1347.7,5.3z"/>
	<rect x="1230.7" y="-8.4" class="st14" width="35" height="138"/>
	<rect x="1432.3" y="-8.4" class="st14" width="35" height="138"/>
	<polygon class="st15" points="1530.5,12.5 1530.5,19.7 1526.8,19.7 1526.8,12.5 1517.9,12.5 1517.9,19.7 1514.2,19.7 1514.2,12.5 
		1505.2,12.5 1505.2,19.7 1501.6,19.7 1501.6,12.5 1492.6,12.5 1492.6,19.7 1488.9,19.7 1488.9,12.5 1479.9,12.5 1479.9,19.7 
		1476.3,19.7 1476.3,12.5 1467.3,12.5 1467.3,19.7 1467.3,23.8 1467.3,88.7 1539.5,88.7 1539.5,23.8 1539.5,19.7 1539.5,12.5 	"/>
	<rect x="1417.9" y="30.6" class="st12" width="82.3" height="12.6"/>
	<rect x="1432.6" y="-14.7" class="st15" width="39.1" height="6.3"/>
	<rect x="1226.3" y="-14.7" class="st15" width="39.1" height="6.3"/>
	<rect x="1422.4" y="43.3" class="st13" width="73.4" height="216.7"/>
	<rect x="1079.7" y="88.7" class="st12" width="122.6" height="171.3"/>
	<rect x="1495.7" y="88.7" class="st12" width="122.6" height="171.3"/>
	<polygon class="st16" points="1412,83.1 1412,91.9 1402.9,91.9 1402.9,83.1 1392.5,83.1 1392.5,91.9 1383.4,91.9 1383.4,83.1 
		1373.1,83.1 1373.1,91.9 1363.9,91.9 1363.9,83.1 1353.6,83.1 1353.6,91.9 1344.4,91.9 1344.4,83.1 1334.1,83.1 1334.1,91.9 
		1324.9,91.9 1324.9,83.1 1314.6,83.1 1314.6,91.9 1305.5,91.9 1305.5,83.1 1295.1,83.1 1295.1,91.9 1286,91.9 1286,83.1 
		1275.6,83.1 1275.6,91.9 1275.6,95 1275.6,260 1422.4,260 1422.4,95 1422.4,91.9 1422.4,83.1 	"/>
	<path class="st17" d="M1347.7,99.3c-28.6,0-51.7,26.6-51.7,59.4V260h103.4V158.8C1399.4,125.9,1376.3,99.3,1347.7,99.3z"/>
	<g>
		<g>
			<path class="st15" d="M1155.5,211.2h-4.7c-0.8,0-1.4-0.6-1.4-1.4v-88.3c0-0.8,0.6-1.4,1.4-1.4h4.7c0.8,0,1.4,0.6,1.4,1.4v88.3
				C1156.9,210.5,1156.2,211.2,1155.5,211.2z"/>
			<path class="st15" d="M1176.7,211.2h-4.7c-0.8,0-1.4-0.6-1.4-1.4v-88.3c0-0.8,0.6-1.4,1.4-1.4h4.7c0.8,0,1.4,0.6,1.4,1.4v88.3
				C1178.1,210.5,1177.4,211.2,1176.7,211.2z"/>
		</g>
		<g>
			<path class="st15" d="M1109.9,211.2h-4.7c-0.8,0-1.4-0.6-1.4-1.4v-88.3c0-0.8,0.6-1.4,1.4-1.4h4.7c0.8,0,1.4,0.6,1.4,1.4v88.3
				C1111.3,210.5,1110.7,211.2,1109.9,211.2z"/>
			<path class="st15" d="M1131.1,211.2h-4.7c-0.8,0-1.4-0.6-1.4-1.4v-88.3c0-0.8,0.6-1.4,1.4-1.4h4.7c0.8,0,1.4,0.6,1.4,1.4v88.3
				C1132.5,210.5,1131.9,211.2,1131.1,211.2z"/>
		</g>
	</g>
	<g>
		<g>
			<path class="st15" d="M1571.5,211.2h-4.7c-0.8,0-1.4-0.6-1.4-1.4v-88.3c0-0.8,0.6-1.4,1.4-1.4h4.7c0.8,0,1.4,0.6,1.4,1.4v88.3
				C1572.9,210.5,1572.3,211.2,1571.5,211.2z"/>
			<path class="st15" d="M1592.7,211.2h-4.7c-0.8,0-1.4-0.6-1.4-1.4v-88.3c0-0.8,0.6-1.4,1.4-1.4h4.7c0.8,0,1.4,0.6,1.4,1.4v88.3
				C1594.1,210.5,1593.5,211.2,1592.7,211.2z"/>
		</g>
		<g>
			<path class="st15" d="M1526,211.2h-4.7c-0.8,0-1.4-0.6-1.4-1.4v-88.3c0-0.8,0.6-1.4,1.4-1.4h4.7c0.8,0,1.4,0.6,1.4,1.4v88.3
				C1527.4,210.5,1526.8,211.2,1526,211.2z"/>
			<path class="st15" d="M1547.2,211.2h-4.7c-0.8,0-1.4-0.6-1.4-1.4v-88.3c0-0.8,0.6-1.4,1.4-1.4h4.7c0.8,0,1.4,0.6,1.4,1.4v88.3
				C1548.6,210.5,1548,211.2,1547.2,211.2z"/>
		</g>
	</g>
	<g>
		<path class="st14" d="M1450.8,194.2h-4.7c-0.8,0-1.4-0.6-1.4-1.4v-88.3c0-0.8,0.6-1.4,1.4-1.4h4.7c0.8,0,1.4,0.6,1.4,1.4v88.3
			C1452.2,193.6,1451.5,194.2,1450.8,194.2z"/>
		<path class="st14" d="M1472,194.2h-4.7c-0.8,0-1.4-0.6-1.4-1.4v-88.3c0-0.8,0.6-1.4,1.4-1.4h4.7c0.8,0,1.4,0.6,1.4,1.4v88.3
			C1473.4,193.6,1472.7,194.2,1472,194.2z"/>
	</g>
	<polygon class="st15" points="1221.7,12.5 1221.7,19.7 1218.1,19.7 1218.1,12.5 1209.1,12.5 1209.1,19.7 1205.4,19.7 1205.4,12.5 
		1196.4,12.5 1196.4,19.7 1192.8,19.7 1192.8,12.5 1183.8,12.5 1183.8,19.7 1180.1,19.7 1180.1,12.5 1171.2,12.5 1171.2,19.7 
		1167.5,19.7 1167.5,12.5 1158.5,12.5 1158.5,19.7 1158.5,23.8 1158.5,88.7 1230.7,88.7 1230.7,23.8 1230.7,19.7 1230.7,12.5 	"/>
	<rect x="1202.3" y="43.3" class="st13" width="73.4" height="216.7"/>
	<rect x="1197.8" y="30.6" class="st12" width="82.3" height="12.6"/>
	<g>
		<path class="st14" d="M1230.7,194.2h-4.7c-0.8,0-1.4-0.6-1.4-1.4v-88.3c0-0.8,0.6-1.4,1.4-1.4h4.7c0.8,0,1.4,0.6,1.4,1.4v88.3
			C1232.1,193.6,1231.5,194.2,1230.7,194.2z"/>
		<path class="st14" d="M1251.9,194.2h-4.7c-0.8,0-1.4-0.6-1.4-1.4v-88.3c0-0.8,0.6-1.4,1.4-1.4h4.7c0.8,0,1.4,0.6,1.4,1.4v88.3
			C1253.3,193.6,1252.7,194.2,1251.9,194.2z"/>
	</g>
</g>
</svg>
