<?xml version="1.0" encoding="utf-8"?>
<!-- Generator: Adobe Illustrator 19.1.0, SVG Export Plug-In . SVG Version: 6.00 Build 0)  -->
<svg version="1.1" id="Capa_1" xmlns="http://www.w3.org/2000/svg" xmlns:xlink="http://www.w3.org/1999/xlink" x="0px" y="0px"
	 viewBox="3237.9 292.5 701 319" style="enable-background:new 3237.9 292.5 701 319;" xml:space="preserve">
<style type="text/css">
	.st0{fill:#1E6399;}
	.st1{fill:#F3EEE2;}
	.st2{fill:#173D6B;}
	.st3{fill:#2F7BEA;}
	.st4{fill:#161B41;stroke:#F3EEE2;stroke-width:2;stroke-miterlimit:10;}
	.st5{fill:none;stroke:#F3EEE2;stroke-width:2;stroke-miterlimit:10;}
	.st6{fill:none;stroke:#A0AEA6;stroke-width:2;stroke-miterlimit:10;}
	.st7{display:none;}
	.st8{fill:#7C291E;}
	.st9{fill:#BC4428;}
	.st10{fill:#F15A29;}
	.st11{opacity:0.5;}
	.st12{fill:#AF7333;}
	.st13{fill:#C68638;}
	.st14{fill:#96602F;}
	.st15{fill:#7C4E28;}
	.st16{fill:#E59C3C;}
	.st17{fill:#FBB040;}
	.st18{fill:#B3CF50;}
	.st19{fill:#A5BA4A;}
	.st20{fill:#C8E25A;}
	.st21{fill:#92A040;}
	.st22{fill:#7B8236;}
	.st23{fill:#E9F766;}
	.st24{fill:#147C68;}
	.st25{fill:#17977F;}
	.st26{opacity:0.41;clip-path:url(#SVGID_2_);}
	.st27{fill:#FFFFFF;}
	.st28{opacity:0.41;clip-path:url(#SVGID_4_);}
	.st29{opacity:0.41;clip-path:url(#SVGID_6_);}
	.st30{fill:#115E4F;}
	.st31{fill:#2DA890;}
	.st32{fill:#29917D;}
	.st33{fill:#34BFA8;}
	.st34{fill:#38D9C3;}
	.st35{fill:#3FEFD1;}
	.st36{opacity:0.3;fill:#FFFFFF;}
	.st37{opacity:0.6;fill:#2DA890;}
	.st38{fill:#1BAFA5;}
	.st39{fill:#1A998C;}
	.st40{opacity:0.6;fill:#1A998C;}
	.st41{fill:#20A595;}
	.st42{fill:#1A897C;}
	.st43{fill:#198477;}
	.st44{fill:#21CCBB;}
	.st45{opacity:0.4;fill:#1A998C;}
	.st46{fill:#104D5E;}
	.st47{fill:#1E5C72;}
	.st48{fill:#236D8E;}
	.st49{fill:#287DAA;}
	.st50{fill:#2E93BF;}
	.st51{opacity:0.31;}
	.st52{fill:#443C86;}
	.st53{fill:#1F1F49;}
	.st54{opacity:0.47;}
	.st55{fill:#5652AA;}
	.st56{fill:#2C2C59;}
	.st57{fill:#373570;}
	.st58{fill:#641E66;}
	.st59{fill:#92278F;}
	.st60{fill:#7C237C;}
	.st61{fill:#461749;}
	.st62{fill:#DA1C5C;}
	.st63{fill:#C61C5D;}
	.st64{fill:#B21D59;}
	.st65{fill:#821A4E;}
	.st66{fill:#991D56;}
</style>
<g>
	<rect x="3433.1" y="293.2" class="st62" width="310.6" height="246.1"/>
	<rect x="3429" y="293.2" class="st63" width="318.9" height="12.6"/>
	<rect x="3429" y="332.2" class="st63" width="318.9" height="12.6"/>
	<rect x="3429" y="371.1" class="st63" width="318.9" height="12.6"/>
	<rect x="3429" y="410" class="st63" width="318.9" height="12.6"/>
	<rect x="3429" y="448.9" class="st63" width="318.9" height="12.6"/>
	<rect x="3429" y="487.8" class="st63" width="318.9" height="12.6"/>
	<rect x="3429" y="526.7" class="st63" width="318.9" height="12.6"/>
	<g>
		<g>
			<rect x="3460" y="305.9" class="st64" width="27" height="26.3"/>
			<rect x="3517.1" y="305.9" class="st64" width="27" height="26.3"/>
			<rect x="3574.3" y="305.9" class="st64" width="27" height="26.3"/>
			<rect x="3631.5" y="305.9" class="st64" width="27" height="26.3"/>
			<rect x="3688.6" y="305.9" class="st64" width="27" height="26.3"/>
		</g>
		<g>
			<rect x="3488.1" y="344.8" class="st64" width="27" height="26.3"/>
			<rect x="3432.9" y="344.8" class="st64" width="27" height="26.3"/>
			<rect x="3545.2" y="344.8" class="st64" width="27" height="26.3"/>
			<rect x="3602.4" y="344.8" class="st64" width="27" height="26.3"/>
			<rect x="3659.6" y="344.8" class="st64" width="27" height="26.3"/>
			<rect x="3716.7" y="344.8" class="st64" width="27" height="26.3"/>
		</g>
		<g>
			<rect x="3488.2" y="422.6" class="st64" width="27" height="26.3"/>
			<rect x="3433.1" y="422.6" class="st64" width="27" height="26.3"/>
			<rect x="3545.4" y="422.6" class="st64" width="27" height="26.3"/>
			<rect x="3602.6" y="422.6" class="st64" width="27" height="26.3"/>
			<rect x="3659.8" y="422.6" class="st64" width="27" height="26.3"/>
			<rect x="3716.9" y="422.6" class="st64" width="27" height="26.3"/>
		</g>
		<g>
			<rect x="3488.2" y="500.4" class="st64" width="27" height="26.3"/>
			<rect x="3433.1" y="500.4" class="st64" width="27" height="26.3"/>
			<rect x="3545.4" y="500.4" class="st64" width="27" height="26.3"/>
			<rect x="3602.6" y="500.4" class="st64" width="27" height="26.3"/>
			<rect x="3659.8" y="500.4" class="st64" width="27" height="26.3"/>
			<rect x="3716.9" y="500.4" class="st64" width="27" height="26.3"/>
		</g>
		<g>
			<rect x="3459.6" y="383.7" class="st64" width="27" height="26.3"/>
			<rect x="3516.8" y="383.7" class="st64" width="27" height="26.3"/>
			<rect x="3573.9" y="383.7" class="st64" width="27" height="26.3"/>
			<rect x="3631.1" y="383.7" class="st64" width="27" height="26.3"/>
			<rect x="3688.3" y="383.7" class="st64" width="27" height="26.3"/>
		</g>
		<g>
			<rect x="3458.8" y="461.5" class="st64" width="27" height="26.3"/>
			<rect x="3516" y="461.5" class="st64" width="27" height="26.3"/>
			<rect x="3573.2" y="461.5" class="st64" width="27" height="26.3"/>
			<rect x="3630.3" y="461.5" class="st64" width="27" height="26.3"/>
			<rect x="3687.5" y="461.5" class="st64" width="27" height="26.3"/>
		</g>
	</g>
	<rect x="3441.6" y="539.3" class="st65" width="295.3" height="72.2"/>
	<rect x="3489.8" y="539.3" class="st66" width="198.9" height="72.2"/>
	<rect x="3540.1" y="539.3" class="st64" width="98.1" height="72.2"/>
</g>
</svg>
