<svg xmlns="http://www.w3.org/2000/svg" xmlns:xlink="http://www.w3.org/1999/xlink" id="Capa_1" x="0" y="0" enable-background="new 3237.9 -59 701 319" version="1.1" viewBox="3237.9 -59 701 319" xml:space="preserve"><style type="text/css">.st31{fill:#2da890}.st32{fill:#29917d}.st33{fill:#34bfa8}.st34{fill:#38d9c3}.st35{fill:#3fefd1}.st36{opacity:.3;fill:#fff}.st37{opacity:.6;fill:#2da890}</style><g><g><rect width="4.9" height="8.4" x="3507.2" y="3.4" class="st31"/><rect width="4.9" height="8.4" x="3507.2" y="23.7" class="st31"/><rect width="4.9" height="8.4" x="3507.2" y="44" class="st31"/><rect width="4.9" height="8.4" x="3507.2" y="64.2" class="st31"/><rect width="4.9" height="8.4" x="3507.2" y="84.5" class="st31"/><rect width="4.9" height="8.4" x="3507.2" y="104.7" class="st31"/><rect width="4.9" height="8.4" x="3507.2" y="125" class="st31"/><rect width="4.9" height="8.4" x="3507.2" y="145.2" class="st31"/></g><rect width="210.1" height="32" x="3525.4" y="68" class="st31"/><rect width="182.4" height="159" x="3538.8" y="100" class="st32"/><rect width="41.4" height="255.5" x="3465.7" y="3.4" class="st33"/><rect width="18.2" height="16.9" x="3470.6" y="9.1" class="st31"/><rect width="18.2" height="16.9" x="3470.6" y="35.5" class="st31"/><rect width="18.2" height="16.9" x="3470.6" y="62.1" class="st31"/><rect width="18.2" height="16.9" x="3470.6" y="87.8" class="st31"/><rect width="18.2" height="16.9" x="3470.6" y="114.3" class="st31"/><rect width="18.2" height="16.9" x="3470.6" y="145.3" class="st31"/><rect width="41.4" height="318" x="3429.2" y="-59" class="st34"/><rect width="41.4" height="287.6" x="3721.3" y="-28.6" class="st33"/><rect width="348.5" height="119" x="3414.1" y="139.9" class="st35"/><rect width="174.3" height="95.5" x="3588.4" y="163.5" class="st36"/><circle cx="3449.9" cy="-36.4" r="16.5" class="st37"/><circle cx="3742" cy=".4" r="11.2" class="st37"/><circle cx="3742" cy="39.3" r="11.2" class="st37"/><circle cx="3742" cy="78.2" r="11.2" class="st37"/><circle cx="3742" cy="117.1" r="11.2" class="st37"/><rect width="188.9" height="13.6" x="3573.8" y="153.7" class="st34"/><g><rect width="27.9" height="27.9" x="3557.8" y="105.9" class="st34"/><rect width="27.9" height="27.9" x="3597.1" y="105.9" class="st34"/><rect width="27.9" height="27.9" x="3636" y="105.9" class="st34"/><rect width="27.9" height="27.9" x="3674.2" y="105.9" class="st34"/></g></g></svg>