<svg xmlns="http://www.w3.org/2000/svg" xmlns:xlink="http://www.w3.org/1999/xlink" id="Capa_1" x="0" y="0" enable-background="new 2495 292.5 701 319" version="1.1" viewBox="2495 292.5 701 319" xml:space="preserve"><style type="text/css">.st58{fill:#641e66}.st59{fill:#92278f}.st60{fill:#7c237c}.st61{fill:#461749}</style><g><rect width="623.2" height="138.7" x="2534.5" y="472.8" class="st58"/><rect width="257.1" height="188.1" x="2717.5" y="423.4" class="st59"/><rect width="66.1" height="158.8" x="3123.2" y="452.7" class="st60"/><rect width="79.4" height="19.7" x="3116.6" y="433.3" class="st58"/><g><path d="M2846.1,326c-56.2,0-103.3,23.9-115.9,78.1h231.6C2949,350.2,2902.1,326,2846.1,326z" class="st58"/></g><g><rect width="23.4" height="70.9" x="2582.1" y="506.7" class="st61"/><rect width="23.4" height="70.9" x="2627.9" y="506.7" class="st61"/><rect width="23.4" height="70.9" x="2673.7" y="506.7" class="st61"/></g><g><rect width="23.4" height="70.9" x="2991.6" y="506.7" class="st61"/><rect width="23.4" height="70.9" x="3037.4" y="506.7" class="st61"/><rect width="23.4" height="70.9" x="3083.2" y="506.7" class="st61"/></g><g><rect width="19.3" height="77.5" x="2764.9" y="460.4" class="st58"/><rect width="19.3" height="77.5" x="2801.1" y="460.4" class="st58"/><rect width="19.3" height="77.5" x="2837.3" y="460.4" class="st58"/><rect width="19.3" height="77.5" x="2873.5" y="460.4" class="st58"/><rect width="19.3" height="77.5" x="2909.7" y="460.4" class="st58"/></g><polygon points="2706.4 404.1 2706.4 443.2 2730.2 443.2 2730.2 611.5 2742.7 611.5 2742.7 443.2 2803.3 443.2 2803.3 611.5 2815.8 611.5 2815.8 443.2 2876.3 443.2 2876.3 611.5 2888.8 611.5 2888.8 443.2 2949.4 443.2 2949.4 611.5 2961.9 611.5 2961.9 443.2 2985.7 443.2 2985.7 404.1" class="st60"/><rect width="66.1" height="158.8" x="2501.6" y="452.7" class="st60"/><rect width="79.4" height="19.7" x="2495" y="433.3" class="st58"/></g></svg>