<svg xmlns="http://www.w3.org/2000/svg" xmlns:xlink="http://www.w3.org/1999/xlink" id="Capa_1" x="0" y="0" enable-background="new 1745.2 292.5 701 319" version="1.1" viewBox="1745.2 292.5 701 319" xml:space="preserve"><style type="text/css">.st52{fill:#443c86}.st53{fill:#1f1f49}.st54{opacity:.47}.st55{fill:#5652aa}.st56{fill:#2c2c59}.st57{fill:#373570}</style><g><path d="M2349.5,486.5l-127.7-51.9h-116.8c0,0-13.7,3.6-13.1,16.1l195.4,49.4L2349.5,486.5z" class="st52"/><path d="M2071.7,447.6c0,0,51.8-17.1,92.8,0c0,0,71,59.4,251.3,18.4l30.5,82.7v19.7h-374.5V447.6z" class="st53"/><g class="st54"><rect width="12.3" height="12.3" x="2187.3" y="505.4" class="st55"/><rect width="11.9" height="11.9" x="2235.7" y="505.4" class="st55"/><rect width="12.6" height="12.6" x="2282.2" y="505.4" class="st55"/></g><g class="st54"><rect width="12.3" height="12.3" x="2211.9" y="505.4" class="st55"/><rect width="11.9" height="11.9" x="2260.4" y="505.4" class="st55"/><rect width="12.6" height="12.6" x="2306.8" y="505.4" class="st55"/></g><path d="M2020.1,427.8c0,0,1.1-4.1,12.3-4.1l31.7,20.5l-44,12.3V427.8z" class="st52"/><path d="M2008.1,465.4v114.8l270.4-6.9l-18.4-53.9c0,0-136.6-12.3-192.5-79.2C2067.5,440.1,2019,433.3,2008.1,465.4z" class="st56"/><polygon points="2012.2 410.7 2012.2 447.6 1876.2 490.8 1927.5 414.2" class="st56"/><polygon points="2025.2 440.1 1964.9 440.1 1825.1 520 1781.8 518.7 1745.2 562.1 1745.2 579.6 2025.2 579.6" class="st53"/><polygon points="1860.1 554.3 1745.2 562.1 1787.7 511.7 1860.1 511.7" class="st57"/><rect width="141" height="35.9" x="1853.3" y="515.1" class="st52"/><g><rect width="12.3" height="12.3" x="1870.1" y="524.9" class="st55"/><rect width="11.9" height="11.9" x="1918.5" y="524.9" class="st55"/><rect width="12.6" height="12.6" x="1964.9" y="524.9" class="st55"/></g><g><rect width="12.3" height="12.3" x="1894.7" y="524.9" class="st55"/><rect width="11.9" height="11.9" x="1943.1" y="524.9" class="st55"/><rect width="12.6" height="12.6" x="1989.6" y="524.9" class="st55"/></g><g class="st54"><rect width="12.3" height="12.3" x="2038.1" y="511.7" class="st55"/><rect width="11.9" height="11.9" x="2086.5" y="511.7" class="st55"/><rect width="12.6" height="12.6" x="2132.9" y="511.7" class="st55"/></g><g class="st54"><rect width="12.3" height="12.3" x="2062.7" y="511.7" class="st55"/><rect width="11.9" height="11.9" x="2111.1" y="511.7" class="st55"/><rect width="12.6" height="12.6" x="2157.5" y="511.7" class="st55"/></g><path d="M1789.1,537.2h-3.6c-0.4,0-0.7-0.3-0.7-0.7v-8.3c0-0.4,0.3-0.7,0.7-0.7h3.6c0.4,0,0.7,0.3,0.7,0.7v8.3 C1789.8,536.8,1789.5,537.2,1789.1,537.2z" class="st52"/><path d="M1803.4,537.2h-3.6c-0.4,0-0.7-0.3-0.7-0.7v-8.3c0-0.4,0.3-0.7,0.7-0.7h3.6c0.4,0,0.7,0.3,0.7,0.7v8.3 C1804.1,536.8,1803.8,537.2,1803.4,537.2z" class="st52"/><path d="M1817.6,537.2h-3.6c-0.4,0-0.7-0.3-0.7-0.7v-8.3c0-0.4,0.3-0.7,0.7-0.7h3.6c0.4,0,0.7,0.3,0.7,0.7v8.3 C1818.3,536.8,1818,537.2,1817.6,537.2z" class="st52"/><path d="M1833.2,537.2h-3.6c-0.4,0-0.7-0.3-0.7-0.7v-8.3c0-0.4,0.3-0.7,0.7-0.7h3.6c0.4,0,0.7,0.3,0.7,0.7v8.3 C1833.9,536.8,1833.6,537.2,1833.2,537.2z" class="st52"/><path d="M1847.5,537.2h-3.6c-0.4,0-0.7-0.3-0.7-0.7v-8.3c0-0.4,0.3-0.7,0.7-0.7h3.6c0.4,0,0.7,0.3,0.7,0.7v8.3 C1848.2,536.8,1847.9,537.2,1847.5,537.2z" class="st52"/><path d="M1745.2,579.6h40.4l2.5-11.3c0,0,262.7,7.7,474.6-19.5h183.5v62.8h-701V579.6z" class="st55"/><rect width="68.8" height="42.6" x="1990.9" y="511.2" class="st57"/><path d="M2014,537.5h-3.6c-0.4,0-0.7-0.3-0.7-0.7v-8.3c0-0.4,0.3-0.7,0.7-0.7h3.6c0.4,0,0.7,0.3,0.7,0.7v8.3 C2014.7,537.2,2014.3,537.5,2014,537.5z" class="st52"/><path d="M2028.2,537.5h-3.6c-0.4,0-0.7-0.3-0.7-0.7v-8.3c0-0.4,0.3-0.7,0.7-0.7h3.6c0.4,0,0.7,0.3,0.7,0.7v8.3 C2028.9,537.2,2028.6,537.5,2028.2,537.5z" class="st52"/><path d="M2042.4,537.5h-3.6c-0.4,0-0.7-0.3-0.7-0.7v-8.3c0-0.4,0.3-0.7,0.7-0.7h3.6c0.4,0,0.7,0.3,0.7,0.7v8.3 C2043.1,537.2,2042.8,537.5,2042.4,537.5z" class="st52"/></g></svg>