<svg xmlns="http://www.w3.org/2000/svg" xmlns:xlink="http://www.w3.org/1999/xlink" id="Capa_1" x="0" y="0" enable-background="new 998.5 -59 701 319" version="1.1" viewBox="998.5 -59 701 319" xml:space="preserve"><style type="text/css">.st12{fill:#af7333}.st13{fill:#c68638}.st14{fill:#96602f}.st15{fill:#7c4e28}.st16{fill:#e59c3c}.st17{fill:#fbb040}</style><g><polygon points="1423.6 -54.6 1423.6 -46 1412.6 -46 1412.6 -54.6 1403.8 -54.6 1403.8 -46 1392.9 -46 1392.9 -54.6 1384.1 -54.6 1384.1 -46 1373.1 -46 1373.1 -54.6 1364.4 -54.6 1364.4 -46 1353.4 -46 1353.4 -54.6 1344.6 -54.6 1344.6 -46 1333.6 -46 1333.6 -54.6 1324.9 -54.6 1324.9 -46 1313.9 -46 1313.9 -54.6 1305.1 -54.6 1305.1 -46 1294.2 -46 1294.2 -54.6 1285.4 -54.6 1285.4 -46 1274.4 -46 1274.4 -54.6 1265.7 -54.6 1265.7 -44.1 1265.7 -44.1 1265.7 91.9 1432.3 91.9 1432.3 -44.1 1432.3 -46 1432.3 -54.6" class="st12"/><path d="M1347.7,5.3c-19,0-34.4,15.4-34.4,34.4v58.6h68.8V39.7C1382.1,20.7,1366.7,5.3,1347.7,5.3z" class="st13"/><rect width="35" height="138" x="1230.7" y="-8.4" class="st14"/><rect width="35" height="138" x="1432.3" y="-8.4" class="st14"/><polygon points="1530.5 12.5 1530.5 19.7 1526.8 19.7 1526.8 12.5 1517.9 12.5 1517.9 19.7 1514.2 19.7 1514.2 12.5 1505.2 12.5 1505.2 19.7 1501.6 19.7 1501.6 12.5 1492.6 12.5 1492.6 19.7 1488.9 19.7 1488.9 12.5 1479.9 12.5 1479.9 19.7 1476.3 19.7 1476.3 12.5 1467.3 12.5 1467.3 19.7 1467.3 23.8 1467.3 88.7 1539.5 88.7 1539.5 23.8 1539.5 19.7 1539.5 12.5" class="st15"/><rect width="82.3" height="12.6" x="1417.9" y="30.6" class="st12"/><rect width="39.1" height="6.3" x="1432.6" y="-14.7" class="st15"/><rect width="39.1" height="6.3" x="1226.3" y="-14.7" class="st15"/><rect width="73.4" height="216.7" x="1422.4" y="43.3" class="st13"/><rect width="122.6" height="171.3" x="1079.7" y="88.7" class="st12"/><rect width="122.6" height="171.3" x="1495.7" y="88.7" class="st12"/><polygon points="1412 83.1 1412 91.9 1402.9 91.9 1402.9 83.1 1392.5 83.1 1392.5 91.9 1383.4 91.9 1383.4 83.1 1373.1 83.1 1373.1 91.9 1363.9 91.9 1363.9 83.1 1353.6 83.1 1353.6 91.9 1344.4 91.9 1344.4 83.1 1334.1 83.1 1334.1 91.9 1324.9 91.9 1324.9 83.1 1314.6 83.1 1314.6 91.9 1305.5 91.9 1305.5 83.1 1295.1 83.1 1295.1 91.9 1286 91.9 1286 83.1 1275.6 83.1 1275.6 91.9 1275.6 95 1275.6 260 1422.4 260 1422.4 95 1422.4 91.9 1422.4 83.1" class="st16"/><path d="M1347.7,99.3c-28.6,0-51.7,26.6-51.7,59.4V260h103.4V158.8C1399.4,125.9,1376.3,99.3,1347.7,99.3z" class="st17"/><g><g><path d="M1155.5,211.2h-4.7c-0.8,0-1.4-0.6-1.4-1.4v-88.3c0-0.8,0.6-1.4,1.4-1.4h4.7c0.8,0,1.4,0.6,1.4,1.4v88.3 C1156.9,210.5,1156.2,211.2,1155.5,211.2z" class="st15"/><path d="M1176.7,211.2h-4.7c-0.8,0-1.4-0.6-1.4-1.4v-88.3c0-0.8,0.6-1.4,1.4-1.4h4.7c0.8,0,1.4,0.6,1.4,1.4v88.3 C1178.1,210.5,1177.4,211.2,1176.7,211.2z" class="st15"/></g><g><path d="M1109.9,211.2h-4.7c-0.8,0-1.4-0.6-1.4-1.4v-88.3c0-0.8,0.6-1.4,1.4-1.4h4.7c0.8,0,1.4,0.6,1.4,1.4v88.3 C1111.3,210.5,1110.7,211.2,1109.9,211.2z" class="st15"/><path d="M1131.1,211.2h-4.7c-0.8,0-1.4-0.6-1.4-1.4v-88.3c0-0.8,0.6-1.4,1.4-1.4h4.7c0.8,0,1.4,0.6,1.4,1.4v88.3 C1132.5,210.5,1131.9,211.2,1131.1,211.2z" class="st15"/></g></g><g><g><path d="M1571.5,211.2h-4.7c-0.8,0-1.4-0.6-1.4-1.4v-88.3c0-0.8,0.6-1.4,1.4-1.4h4.7c0.8,0,1.4,0.6,1.4,1.4v88.3 C1572.9,210.5,1572.3,211.2,1571.5,211.2z" class="st15"/><path d="M1592.7,211.2h-4.7c-0.8,0-1.4-0.6-1.4-1.4v-88.3c0-0.8,0.6-1.4,1.4-1.4h4.7c0.8,0,1.4,0.6,1.4,1.4v88.3 C1594.1,210.5,1593.5,211.2,1592.7,211.2z" class="st15"/></g><g><path d="M1526,211.2h-4.7c-0.8,0-1.4-0.6-1.4-1.4v-88.3c0-0.8,0.6-1.4,1.4-1.4h4.7c0.8,0,1.4,0.6,1.4,1.4v88.3 C1527.4,210.5,1526.8,211.2,1526,211.2z" class="st15"/><path d="M1547.2,211.2h-4.7c-0.8,0-1.4-0.6-1.4-1.4v-88.3c0-0.8,0.6-1.4,1.4-1.4h4.7c0.8,0,1.4,0.6,1.4,1.4v88.3 C1548.6,210.5,1548,211.2,1547.2,211.2z" class="st15"/></g></g><g><path d="M1450.8,194.2h-4.7c-0.8,0-1.4-0.6-1.4-1.4v-88.3c0-0.8,0.6-1.4,1.4-1.4h4.7c0.8,0,1.4,0.6,1.4,1.4v88.3 C1452.2,193.6,1451.5,194.2,1450.8,194.2z" class="st14"/><path d="M1472,194.2h-4.7c-0.8,0-1.4-0.6-1.4-1.4v-88.3c0-0.8,0.6-1.4,1.4-1.4h4.7c0.8,0,1.4,0.6,1.4,1.4v88.3 C1473.4,193.6,1472.7,194.2,1472,194.2z" class="st14"/></g><polygon points="1221.7 12.5 1221.7 19.7 1218.1 19.7 1218.1 12.5 1209.1 12.5 1209.1 19.7 1205.4 19.7 1205.4 12.5 1196.4 12.5 1196.4 19.7 1192.8 19.7 1192.8 12.5 1183.8 12.5 1183.8 19.7 1180.1 19.7 1180.1 12.5 1171.2 12.5 1171.2 19.7 1167.5 19.7 1167.5 12.5 1158.5 12.5 1158.5 19.7 1158.5 23.8 1158.5 88.7 1230.7 88.7 1230.7 23.8 1230.7 19.7 1230.7 12.5" class="st15"/><rect width="73.4" height="216.7" x="1202.3" y="43.3" class="st13"/><rect width="82.3" height="12.6" x="1197.8" y="30.6" class="st12"/><g><path d="M1230.7,194.2h-4.7c-0.8,0-1.4-0.6-1.4-1.4v-88.3c0-0.8,0.6-1.4,1.4-1.4h4.7c0.8,0,1.4,0.6,1.4,1.4v88.3 C1232.1,193.6,1231.5,194.2,1230.7,194.2z" class="st14"/><path d="M1251.9,194.2h-4.7c-0.8,0-1.4-0.6-1.4-1.4v-88.3c0-0.8,0.6-1.4,1.4-1.4h4.7c0.8,0,1.4,0.6,1.4,1.4v88.3 C1253.3,193.6,1252.7,194.2,1251.9,194.2z" class="st14"/></g></g></svg>