<svg xmlns="http://www.w3.org/2000/svg" xmlns:xlink="http://www.w3.org/1999/xlink" id="Capa_1" x="0" y="0" enable-background="new 251 292.5 701 319" version="1.1" viewBox="251 292.5 701 319" xml:space="preserve"><style type="text/css">.st38{fill:#1bafa5}.st39,.st40{fill:#1a998c}.st40{opacity:.6}.st41{fill:#20a595}.st42{fill:#1a897c}.st43{fill:#198477}.st44{fill:#21ccbb}.st45{opacity:.4;fill:#1a998c}</style><g><g><rect width="141.9" height="77.3" x="803.7" y="533.7" class="st38"/><rect width="154.8" height="8.7" x="797.2" y="525.8" class="st39"/><g><rect width="6.6" height="80.8" x="834.6" y="530.2" class="st39"/><rect width="6.6" height="80.8" x="908.1" y="530.2" class="st39"/></g><rect width="23.6" height="31.1" x="862.8" y="580.1" class="st39"/><rect width="17.8" height="17.8" x="809.7" y="547.1" class="st40"/><rect width="17.8" height="17.8" x="921.6" y="547.1" class="st40"/><g><rect width="17.8" height="17.8" x="850.8" y="547.1" class="st40"/><rect width="17.8" height="17.8" x="880.7" y="547.1" class="st40"/></g></g><polygon points="774.3 588.5 774.3 611.2 826.3 611.2 826.3 588.5 800.3 562.4" class="st41"/><polygon points="826.3 582.1 806.6 562.4 803.5 559.3 803.5 559.2 800.3 556.1 800.3 556.1 800.2 556.1 797.1 559.2 797.1 559.3 793.9 562.4 774.3 582.1 767.5 588.8 770.7 592 774.3 588.5 800.3 562.4 826.3 588.5 829.9 592 833 588.8" class="st42"/><rect width="14" height="26.4" x="793.3" y="584.8" class="st42"/><rect width="9.4" height="10.2" x="810.7" y="584.8" class="st39"/><rect width="9.4" height="10.2" x="779.9" y="584.8" class="st39"/><path d="M665,521.9v47.9v19.6v22.1h69.3v-89.6H665z M679.7,596h-8.1v-4.5h8.1V596z M679.7,587.2h-8.1v-4.5h8.1V587.2z M679.7,578.2h-8.1v-4.5h8.1V578.2z M679.7,569.2h-8.1v-4.5h8.1V569.2z M679.7,560.2h-8.1v-4.5h8.1V560.2z M679.7,551.4h-8.1v-4.5 h8.1V551.4z M679.7,542.4h-8.1v-4.5h8.1V542.4z M679.7,533.4h-8.1v-4.5h8.1V533.4z M695.7,596h-8.1v-4.5h8.1V596z M695.7,587.2 h-8.1v-4.5h8.1V587.2z M695.7,578.2h-8.1v-4.5h8.1V578.2z M695.7,569.2h-8.1v-4.5h8.1V569.2z M695.7,560.2h-8.1v-4.5h8.1V560.2z M695.7,551.4h-8.1v-4.5h8.1V551.4z M695.7,542.4h-8.1v-4.5h8.1V542.4z M695.7,533.4h-8.1v-4.5h8.1V533.4z M711.7,596h-8.1v-4.5 h8.1V596z M711.7,587.2h-8.1v-4.5h8.1V587.2z M711.7,578.2h-8.1v-4.5h8.1V578.2z M711.7,569.2h-8.1v-4.5h8.1V569.2z M711.7,560.2 h-8.1v-4.5h8.1V560.2z M711.7,551.4h-8.1v-4.5h8.1V551.4z M711.7,542.4h-8.1v-4.5h8.1V542.4z M711.7,533.4h-8.1v-4.5h8.1V533.4z M727.7,596h-8.1v-4.5h8.1V596z M727.7,587.2h-8.1v-4.5h8.1V587.2z M727.7,578.2h-8.1v-4.5h8.1V578.2z M727.7,569.2h-8.1v-4.5h8.1 V569.2z M727.7,560.2h-8.1v-4.5h8.1V560.2z M727.7,551.4h-8.1v-4.5h8.1V551.4z M727.7,542.4h-8.1v-4.5h8.1V542.4z M727.7,533.4 h-8.1v-4.5h8.1V533.4z" class="st43"/><path d="M595.6,436.5v174.4H665V436.5H595.6z M610.5,588.7h-8v-9.6h8V588.7z M610.5,569.9h-8v-9.6h8V569.9z M610.5,550.7h-8v-9.6h8V550.7z M610.5,531.7h-8v-9.6h8V531.7z M610.5,512.6h-8V503h8V512.6z M610.5,493.8h-8v-9.6h8V493.8z M610.5,474.6h-8V465h8V474.6z M610.5,455.5h-8v-9.6h8V455.5z M626.4,588.7h-8v-9.6h8V588.7z M626.4,569.9h-8v-9.6h8V569.9z M626.4,550.7h-8v-9.6h8V550.7z M626.4,531.7h-8v-9.6h8V531.7z M626.4,512.6h-8V503h8V512.6z M626.4,493.8h-8v-9.6h8V493.8z M626.4,474.6h-8V465h8V474.6z M626.4,455.5h-8v-9.6h8V455.5z M642.2,588.7h-8v-9.6h8V588.7z M642.2,569.9h-8v-9.6h8V569.9z M642.2,550.7h-8v-9.6h8V550.7z M642.2,531.7h-8v-9.6h8V531.7z M642.2,512.6h-8V503h8V512.6z M642.2,493.8h-8v-9.6h8V493.8z M642.2,474.6h-8V465h8V474.6z M642.2,455.5h-8v-9.6h8V455.5z M658.1,588.7h-8v-9.6h8V588.7z M658.1,569.9h-8v-9.6h8V569.9z M658.1,550.7h-8v-9.6h8V550.7z M658.1,531.7h-8v-9.6h8V531.7z M658.1,512.6h-8V503h8V512.6z M658.1,493.8h-8v-9.6h8V493.8z M658.1,474.6h-8V465h8V474.6z M658.1,455.5h-8v-9.6h8V455.5z" class="st39"/><path d="M527.8,377v234h69.3V377H527.8z M542.7,581.1h-8v-12.9h8V581.1z M542.7,555.9h-8V543h8V555.9z M542.7,530.2 h-8v-12.9h8V530.2z M542.7,504.6h-8v-12.9h8V504.6z M542.7,479h-8v-12.9h8V479z M542.7,453.8h-8V441h8V453.8z M542.7,428.1h-8 v-12.9h8V428.1z M542.7,402.5h-8v-12.9h8V402.5z M558.5,581.1h-8v-12.9h8V581.1z M558.5,555.9h-8V543h8V555.9z M558.5,530.2h-8 v-12.9h8V530.2z M558.5,504.6h-8v-12.9h8V504.6z M558.5,479h-8v-12.9h8V479z M558.5,453.8h-8V441h8V453.8z M558.5,428.1h-8v-12.9h8 V428.1z M558.5,402.5h-8v-12.9h8V402.5z M574.4,581.1h-8v-12.9h8V581.1z M574.4,555.9h-8V543h8V555.9z M574.4,530.2h-8v-12.9h8 V530.2z M574.4,504.6h-8v-12.9h8V504.6z M574.4,479h-8v-12.9h8V479z M574.4,453.8h-8V441h8V453.8z M574.4,428.1h-8v-12.9h8V428.1z M574.4,402.5h-8v-12.9h8V402.5z M590.2,581.1h-8v-12.9h8V581.1z M590.2,555.9h-8V543h8V555.9z M590.2,530.2h-8v-12.9h8V530.2z M590.2,504.6h-8v-12.9h8V504.6z M590.2,479h-8v-12.9h8V479z M590.2,453.8h-8V441h8V453.8z M590.2,428.1h-8v-12.9h8V428.1z M590.2,402.5h-8v-12.9h8V402.5z" class="st38"/><g><rect width="217" height="118.2" x="260.8" y="492.8" class="st38"/><rect width="236.6" height="13.3" x="251" y="480.7" class="st39"/><g><rect width="10" height="123.6" x="308.1" y="487.4" class="st39"/><rect width="10" height="123.6" x="420.5" y="487.4" class="st39"/></g><rect width="36.1" height="47.5" x="351.3" y="563.8" class="st39"/><rect width="27.2" height="27.2" x="270.1" y="513.3" class="st40"/><rect width="27.2" height="27.2" x="441.2" y="513.3" class="st40"/><g><rect width="27.2" height="27.2" x="332.9" y="513.3" class="st40"/><rect width="27.2" height="27.2" x="378.6" y="513.3" class="st40"/></g></g><polygon points="477.8 580.9 477.8 611 546.5 611 546.5 580.9 512.2 546.6" class="st44"/><polygon points="546.5 572.5 520.5 546.6 516.4 542.4 516.4 542.3 512.2 538.1 512.2 538.2 512.1 538.1 507.9 542.3 507.9 542.4 503.8 546.6 477.8 572.5 468.9 581.4 473.1 585.6 477.8 580.9 512.2 546.6 546.5 580.9 551.2 585.6 555.4 581.4" class="st39"/><rect width="18.5" height="34.9" x="502.9" y="576.1" class="st45"/><rect width="12.4" height="13.4" x="525.9" y="576.1" class="st39"/><rect width="12.4" height="13.4" x="485.3" y="576.1" class="st39"/><polygon points="731.1 591.3 731.1 611.1 776.4 611.1 776.4 591.3 753.7 568.6" class="st44"/><polygon points="776.4 585.7 759.3 568.6 756.5 565.9 756.5 565.9 753.8 563.1 753.7 563.1 753.7 563.1 750.9 565.9 751 565.9 748.2 568.6 731.1 585.7 725.2 591.6 728 594.4 731.1 591.3 753.7 568.6 776.4 591.3 779.5 594.4 782.2 591.6" class="st39"/><rect width="12.2" height="23" x="747.6" y="588.1" class="st45"/><rect width="8.1" height="8.9" x="762.8" y="588.1" class="st39"/><rect width="8.1" height="8.9" x="736" y="588.1" class="st39"/></g></svg>