<svg xmlns="http://www.w3.org/2000/svg" xmlns:xlink="http://www.w3.org/1999/xlink" id="Capa_1" x="0" y="0" enable-background="new 1745.2 -59 701 319" version="1.1" viewBox="1745.2 -59 701 319" xml:space="preserve"><style type="text/css">.st18{fill:#b3cf50}.st19{fill:#a5ba4a}.st20{fill:#c8e25a}.st21{fill:#92a040}.st22{fill:#7b8236}.st23{fill:#e9f766}</style><g><rect width="65.1" height="319.1" x="1910.6" y="-59" class="st18"/><rect width="46.2" height="232.9" x="2238.9" y="27" class="st19"/><rect width="262.8" height="89.8" x="1976.1" y="170.2" class="st20"/><circle cx="1943.1" cy="-14.2" r="23.7" class="st20"/><rect width="26.2" height="14.9" x="2249.1" y="39.2" class="st20"/><rect width="26.2" height="14.9" x="2249.1" y="68.2" class="st20"/><rect width="26.2" height="14.9" x="2249.1" y="97.2" class="st20"/><rect width="26.2" height="14.9" x="2249.1" y="126.3" class="st20"/><rect width="26.2" height="14.9" x="2249.1" y="155.3" class="st20"/><rect width="26.2" height="14.9" x="2249.1" y="184.3" class="st20"/><rect width="26.2" height="14.9" x="2249.1" y="213.3" class="st20"/><rect width="37" height="77.5" x="1986.3" y="182.5" class="st18"/><rect width="37" height="77.5" x="2037.4" y="182.5" class="st18"/><rect width="37" height="77.5" x="2088.5" y="182.5" class="st18"/><rect width="37" height="77.5" x="2139.7" y="182.5" class="st18"/><rect width="37" height="77.5" x="2190.8" y="182.5" class="st18"/><rect width="74.7" height="162.5" x="1906.2" y="21.8" class="st21"/><rect width="262.8" height="44.5" x="1976.1" y="126.3" class="st22"/><rect width="21" height="23.8" x="1986.3" y="136.3" class="st23"/><rect width="21" height="23.8" x="2010.8" y="136.3" class="st23"/><rect width="21" height="23.8" x="2035.4" y="136.3" class="st23"/><rect width="21" height="23.8" x="2059.9" y="136.3" class="st23"/><rect width="21" height="23.8" x="2084.5" y="136.3" class="st23"/><rect width="21" height="23.8" x="2109" y="136.3" class="st23"/><rect width="21" height="23.8" x="2133.5" y="136.3" class="st23"/><rect width="21" height="23.8" x="2158.1" y="136.3" class="st23"/><rect width="21" height="23.8" x="2182.6" y="136.3" class="st23"/><rect width="21" height="23.8" x="2207.2" y="136.3" class="st23"/></g></svg>