<?xml version="1.0" encoding="utf-8"?>
<!-- Generator: Adobe Illustrator 19.1.0, SVG Export Plug-In . SVG Version: 6.00 Build 0)  -->
<svg version="1.1" id="Capa_1" xmlns="http://www.w3.org/2000/svg" xmlns:xlink="http://www.w3.org/1999/xlink" x="0px" y="0px"
	 viewBox="998.5 292.5 701 319" style="enable-background:new 998.5 292.5 701 319;" xml:space="preserve">
<style type="text/css">
	.st0{fill:#1E6399;}
	.st1{fill:#F3EEE2;}
	.st2{fill:#173D6B;}
	.st3{fill:#2F7BEA;}
	.st4{fill:#161B41;stroke:#F3EEE2;stroke-width:2;stroke-miterlimit:10;}
	.st5{fill:none;stroke:#F3EEE2;stroke-width:2;stroke-miterlimit:10;}
	.st6{fill:none;stroke:#A0AEA6;stroke-width:2;stroke-miterlimit:10;}
	.st7{display:none;}
	.st8{fill:#7C291E;}
	.st9{fill:#BC4428;}
	.st10{fill:#F15A29;}
	.st11{opacity:0.5;}
	.st12{fill:#AF7333;}
	.st13{fill:#C68638;}
	.st14{fill:#96602F;}
	.st15{fill:#7C4E28;}
	.st16{fill:#E59C3C;}
	.st17{fill:#FBB040;}
	.st18{fill:#B3CF50;}
	.st19{fill:#A5BA4A;}
	.st20{fill:#C8E25A;}
	.st21{fill:#92A040;}
	.st22{fill:#7B8236;}
	.st23{fill:#E9F766;}
	.st24{fill:#147C68;}
	.st25{fill:#17977F;}
	.st26{opacity:0.41;clip-path:url(#SVGID_2_);}
	.st27{fill:#FFFFFF;}
	.st28{opacity:0.41;clip-path:url(#SVGID_4_);}
	.st29{opacity:0.41;clip-path:url(#SVGID_6_);}
	.st30{fill:#115E4F;}
	.st31{fill:#2DA890;}
	.st32{fill:#29917D;}
	.st33{fill:#34BFA8;}
	.st34{fill:#38D9C3;}
	.st35{fill:#3FEFD1;}
	.st36{opacity:0.3;fill:#FFFFFF;}
	.st37{opacity:0.6;fill:#2DA890;}
	.st38{fill:#1BAFA5;}
	.st39{fill:#1A998C;}
	.st40{opacity:0.6;fill:#1A998C;}
	.st41{fill:#20A595;}
	.st42{fill:#1A897C;}
	.st43{fill:#198477;}
	.st44{fill:#21CCBB;}
	.st45{opacity:0.4;fill:#1A998C;}
	.st46{fill:#104D5E;}
	.st47{fill:#1E5C72;}
	.st48{fill:#236D8E;}
	.st49{fill:#287DAA;}
	.st50{fill:#2E93BF;}
	.st51{opacity:0.31;}
	.st52{fill:#443C86;}
	.st53{fill:#1F1F49;}
	.st54{opacity:0.47;}
	.st55{fill:#5652AA;}
	.st56{fill:#2C2C59;}
	.st57{fill:#373570;}
	.st58{fill:#641E66;}
	.st59{fill:#92278F;}
	.st60{fill:#7C237C;}
	.st61{fill:#461749;}
	.st62{fill:#DA1C5C;}
	.st63{fill:#C61C5D;}
	.st64{fill:#B21D59;}
	.st65{fill:#821A4E;}
	.st66{fill:#991D56;}
</style>
<g>
	<rect x="1048.6" y="404.5" class="st46" width="600.8" height="207"/>
	<rect x="1084.9" y="354.9" class="st47" width="528.2" height="256.6"/>
	<rect x="1114.2" y="293.1" class="st48" width="469.5" height="318.4"/>
	<rect x="1179" y="471.9" class="st49" width="339.9" height="139.5"/>
	<rect x="1241" y="527.1" class="st50" width="216.1" height="84.4"/>
	<rect x="1241" y="522.6" class="st48" width="8.3" height="88.9"/>
	<rect x="1448.7" y="522.6" class="st48" width="8.3" height="88.9"/>
	<rect x="1204" y="520" class="st48" width="289.9" height="8.3"/>
	<g class="st51">
		<rect x="1134.2" y="309.5" class="st48" width="34.3" height="33.2"/>
		<rect x="1173.9" y="309.5" class="st48" width="34.3" height="33.2"/>
		<rect x="1213.6" y="309.5" class="st48" width="34.3" height="33.2"/>
		<rect x="1253.3" y="309.5" class="st48" width="34.3" height="33.2"/>
		<rect x="1293" y="309.5" class="st48" width="34.3" height="33.2"/>
		<rect x="1332.6" y="309.5" class="st48" width="34.3" height="33.2"/>
		<rect x="1372.3" y="309.5" class="st48" width="34.3" height="33.2"/>
		<rect x="1412" y="309.5" class="st48" width="34.3" height="33.2"/>
		<rect x="1451.7" y="309.5" class="st48" width="34.3" height="33.2"/>
		<rect x="1491.4" y="309.5" class="st48" width="34.3" height="33.2"/>
		<rect x="1531.1" y="309.5" class="st48" width="34.3" height="33.2"/>
		<rect x="1134.2" y="364.3" class="st48" width="34.3" height="33.2"/>
		<rect x="1173.9" y="364.3" class="st48" width="34.3" height="33.2"/>
		<rect x="1213.6" y="364.3" class="st48" width="34.3" height="33.2"/>
		<rect x="1253.3" y="364.3" class="st48" width="34.3" height="33.2"/>
		<rect x="1293" y="364.3" class="st48" width="34.3" height="33.2"/>
		<rect x="1332.6" y="364.3" class="st48" width="34.3" height="33.2"/>
		<rect x="1372.3" y="364.3" class="st48" width="34.3" height="33.2"/>
		<rect x="1412" y="364.3" class="st48" width="34.3" height="33.2"/>
		<rect x="1451.7" y="364.3" class="st48" width="34.3" height="33.2"/>
		<rect x="1491.4" y="364.3" class="st48" width="34.3" height="33.2"/>
		<rect x="1531.1" y="364.3" class="st48" width="34.3" height="33.2"/>
		<rect x="1134.2" y="419.1" class="st48" width="34.3" height="33.2"/>
		<rect x="1173.9" y="419.1" class="st48" width="34.3" height="33.2"/>
		<rect x="1213.6" y="419.1" class="st48" width="34.3" height="33.2"/>
		<rect x="1253.3" y="419.1" class="st48" width="34.3" height="33.2"/>
		<rect x="1293" y="419.1" class="st48" width="34.3" height="33.2"/>
		<rect x="1332.6" y="419.1" class="st48" width="34.3" height="33.2"/>
		<rect x="1372.3" y="419.1" class="st48" width="34.3" height="33.2"/>
		<rect x="1412" y="419.1" class="st48" width="34.3" height="33.2"/>
		<rect x="1451.7" y="419.1" class="st48" width="34.3" height="33.2"/>
		<rect x="1491.4" y="419.1" class="st48" width="34.3" height="33.2"/>
		<rect x="1531.1" y="419.1" class="st48" width="34.3" height="33.2"/>
	</g>
</g>
</svg>
