<svg xmlns="http://www.w3.org/2000/svg" xmlns:xlink="http://www.w3.org/1999/xlink" id="Capa_1" x="0" y="0" enable-background="new 251 -59 701 319" version="1.1" viewBox="251 -59 701 319" xml:space="preserve"><style type="text/css">.st8{fill:#7c291e}.st9{fill:#bc4428}.st10{fill:#f15a29}.st11{opacity:.5}</style><g><rect width="75.9" height="42.1" x="777.1" y="-36.5" class="st8"/><path d="M337.1-15c0,0,370.7-15.8,447.5-44l-0.2,71.7l-447.4-2.7V-15z" class="st9"/><rect width="626.1" height="194.9" x="288.4" y="-1.7" class="st10"/><rect width="588.3" height="68.3" x="307.4" y="191" class="st9"/><g class="st11"><rect width="53.8" height="20.5" x="307.4" y="15.6" class="st8"/><rect width="53.8" height="20.5" x="383.7" y="15.6" class="st8"/><rect width="53.8" height="20.5" x="460.1" y="15.6" class="st8"/><rect width="53.8" height="20.5" x="536.4" y="15.6" class="st8"/><rect width="53.8" height="20.5" x="612.8" y="15.6" class="st8"/><rect width="53.8" height="20.5" x="689.1" y="15.6" class="st8"/><rect width="53.8" height="20.5" x="765.5" y="15.6" class="st8"/><rect width="53.8" height="20.5" x="841.9" y="15.6" class="st8"/><rect width="53.8" height="20.5" x="307.4" y="58.7" class="st8"/><rect width="53.8" height="20.5" x="383.7" y="58.7" class="st8"/><rect width="53.8" height="20.5" x="460.1" y="58.7" class="st8"/><rect width="53.8" height="20.5" x="536.4" y="58.7" class="st8"/><rect width="53.8" height="20.5" x="612.8" y="58.7" class="st8"/><rect width="53.8" height="20.5" x="689.1" y="58.7" class="st8"/><rect width="53.8" height="20.5" x="765.5" y="58.7" class="st8"/><rect width="53.8" height="20.5" x="841.9" y="58.7" class="st8"/><rect width="53.8" height="20.5" x="307.4" y="101.7" class="st8"/><rect width="53.8" height="20.5" x="383.7" y="101.7" class="st8"/><rect width="53.8" height="20.5" x="460.1" y="101.7" class="st8"/><rect width="53.8" height="20.5" x="536.4" y="101.7" class="st8"/><rect width="53.8" height="20.5" x="612.8" y="101.7" class="st8"/><rect width="53.8" height="20.5" x="689.1" y="101.7" class="st8"/><rect width="53.8" height="20.5" x="765.5" y="101.7" class="st8"/><rect width="53.8" height="20.5" x="841.9" y="101.7" class="st8"/><rect width="53.8" height="20.5" x="307.4" y="144.8" class="st8"/><rect width="53.8" height="20.5" x="383.7" y="144.8" class="st8"/><rect width="53.8" height="20.5" x="460.1" y="144.8" class="st8"/><rect width="53.8" height="20.5" x="536.4" y="144.8" class="st8"/><rect width="53.8" height="20.5" x="612.8" y="144.8" class="st8"/><rect width="53.8" height="20.5" x="689.1" y="144.8" class="st8"/><rect width="53.8" height="20.5" x="765.5" y="144.8" class="st8"/><rect width="53.8" height="20.5" x="841.9" y="144.8" class="st8"/></g><rect width="8.3" height="69" x="351.5" y="191" class="st8"/><rect width="8.3" height="69" x="413.1" y="191" class="st8"/><rect width="8.3" height="69" x="474.8" y="191" class="st8"/><rect width="8.3" height="69" x="536.4" y="191" class="st8"/><rect width="8.3" height="69" x="598.1" y="191" class="st8"/><rect width="8.3" height="69" x="659.7" y="191" class="st8"/><rect width="8.3" height="69" x="721.4" y="191" class="st8"/><rect width="8.3" height="69" x="783.1" y="191" class="st8"/><rect width="8.3" height="69" x="844.7" y="191" class="st8"/></g></svg>