<svg xmlns="http://www.w3.org/2000/svg" xmlns:xlink="http://www.w3.org/1999/xlink" id="Capa_1" width="724.817" height="549.5" x="0" y="0" enable-background="new 176.182 261.5 724.817 549.5" version="1.1" viewBox="176.182 261.5 724.817 549.5" xml:space="preserve"><g id="Capa_6"><g><rect width="5" height="46" x="240" y="758" fill="#93908A"/><path fill="#93908A" stroke="#161B41" stroke-miterlimit="10" stroke-width="3" d="M274,719c0-39.765-12.943-138-28.909-138 c-15.966,0-28.909,98.235-28.909,138s12.943,42,28.909,42C261.057,761,274,758.765,274,719z"/><rect width="5" height="46" x="864" y="758" fill="#93908A"/><path fill="#93908A" stroke="#161B41" stroke-miterlimit="10" stroke-width="3" d="M900.999,690.638 c0-66.616-14.286-231.188-31.908-231.188s-31.909,164.571-31.909,231.188c0,66.618,14.287,70.362,31.909,70.362 S900.999,757.256,900.999,690.638z"/><rect width="49" height="8" x="219" y="803" fill="#0D5938"/><rect width="5" height="46" x="200" y="758" fill="#93908A"/><path fill="#93908A" stroke="#161B41" stroke-miterlimit="10" stroke-width="3" d="M234,691.658 c0-65.652-12.943-227.84-28.909-227.84c-15.966,0-28.909,162.188-28.909,227.84c0,65.65,12.943,69.342,28.909,69.342 C221.057,761,234,757.31,234,691.658z"/><rect width="49" height="8" x="179" y="803" fill="#0D5938"/><rect width="49" height="8" x="843" y="803" fill="#0D5938"/><rect width="229" height="385" x="306" y="298" fill="#0D5938"/><line x1="535" x2="306" y1="489" y2="489" fill="none" stroke="#F3EEE2" stroke-miterlimit="10" stroke-width="4"/><line x1="535" x2="306" y1="596" y2="596" fill="none" stroke="#F3EEE2" stroke-miterlimit="10" stroke-width="4"/><rect width="229" height="86" x="306" y="710" fill="#0D5938"/><g><rect width="69" height="65" x="329" y="729" fill="#161B41" stroke="#F3EEE2" stroke-miterlimit="10" stroke-width="2"/><line x1="329" x2="398" y1="744" y2="744" fill="none" stroke="#F3EEE2" stroke-miterlimit="10" stroke-width="2"/></g><g><g><line x1="363" x2="363" y1="795" y2="730" fill="none" stroke="#F3EEE2" stroke-miterlimit="10" stroke-width="2"/></g><g><line x1="359" x2="359" y1="777" y2="755" fill="none" stroke="#F3EEE2" stroke-miterlimit="10" stroke-width="2"/></g><g><line x1="367" x2="367" y1="777" y2="755" fill="none" stroke="#F3EEE2" stroke-miterlimit="10" stroke-width="2"/></g></g><line x1="535" x2="306" y1="390" y2="390" fill="none" stroke="#F3EEE2" stroke-miterlimit="10" stroke-width="4"/><line x1="536" x2="304" y1="266" y2="266" fill="none" stroke="#A0AEA6" stroke-miterlimit="10" stroke-width="2"/><line x1="536" x2="304" y1="291" y2="291" fill="none" stroke="#A0AEA6" stroke-miterlimit="10" stroke-width="2"/><line x1="306" x2="306" y1="292" y2="267" fill="none" stroke="#A0AEA6" stroke-miterlimit="10" stroke-width="2"/><line x1="316" x2="316" y1="292" y2="267" fill="none" stroke="#A0AEA6" stroke-miterlimit="10" stroke-width="2"/><line x1="326" x2="326" y1="292" y2="267" fill="none" stroke="#A0AEA6" stroke-miterlimit="10" stroke-width="2"/><line x1="336" x2="336" y1="292" y2="267" fill="none" stroke="#A0AEA6" stroke-miterlimit="10" stroke-width="2"/><line x1="346" x2="346" y1="292" y2="267" fill="none" stroke="#A0AEA6" stroke-miterlimit="10" stroke-width="2"/><line x1="356" x2="356" y1="292" y2="267" fill="none" stroke="#A0AEA6" stroke-miterlimit="10" stroke-width="2"/><line x1="366" x2="366" y1="292" y2="267" fill="none" stroke="#A0AEA6" stroke-miterlimit="10" stroke-width="2"/><line x1="376" x2="376" y1="292" y2="267" fill="none" stroke="#A0AEA6" stroke-miterlimit="10" stroke-width="2"/><line x1="386" x2="386" y1="292" y2="267" fill="none" stroke="#A0AEA6" stroke-miterlimit="10" stroke-width="2"/><line x1="406" x2="406" y1="292" y2="267" fill="none" stroke="#A0AEA6" stroke-miterlimit="10" stroke-width="2"/><line x1="425" x2="425" y1="292" y2="267" fill="none" stroke="#A0AEA6" stroke-miterlimit="10" stroke-width="2"/><line x1="455" x2="455" y1="292" y2="267" fill="none" stroke="#A0AEA6" stroke-miterlimit="10" stroke-width="2"/><line x1="445" x2="445" y1="292" y2="267" fill="none" stroke="#A0AEA6" stroke-miterlimit="10" stroke-width="2"/><line x1="475" x2="475" y1="292" y2="267" fill="none" stroke="#A0AEA6" stroke-miterlimit="10" stroke-width="2"/><line x1="495" x2="495" y1="292" y2="267" fill="none" stroke="#A0AEA6" stroke-miterlimit="10" stroke-width="2"/><line x1="515" x2="515" y1="292" y2="267" fill="none" stroke="#A0AEA6" stroke-miterlimit="10" stroke-width="2"/><line x1="396" x2="396" y1="292" y2="267" fill="none" stroke="#A0AEA6" stroke-miterlimit="10" stroke-width="2"/><line x1="416" x2="416" y1="292" y2="267" fill="none" stroke="#A0AEA6" stroke-miterlimit="10" stroke-width="2"/><line x1="435" x2="435" y1="292" y2="267" fill="none" stroke="#A0AEA6" stroke-miterlimit="10" stroke-width="2"/><line x1="465" x2="465" y1="292" y2="267" fill="none" stroke="#A0AEA6" stroke-miterlimit="10" stroke-width="2"/><line x1="485" x2="485" y1="292" y2="267" fill="none" stroke="#A0AEA6" stroke-miterlimit="10" stroke-width="2"/><line x1="505" x2="505" y1="292" y2="267" fill="none" stroke="#A0AEA6" stroke-miterlimit="10" stroke-width="2"/><line x1="525" x2="525" y1="292" y2="267" fill="none" stroke="#A0AEA6" stroke-miterlimit="10" stroke-width="2"/><line x1="535" x2="535" y1="292" y2="267" fill="none" stroke="#A0AEA6" stroke-miterlimit="10" stroke-width="2"/><rect width="230.999" height="11" x="306.016" y="689.992" fill="#F3EEE2" transform="matrix(-1 -0.0018 0.0018 -1 841.7791 1391.7424)"/><rect width="29" height="52" x="484.825" y="311.952" fill="#161B41" stroke="#F3EEE2" stroke-miterlimit="10" stroke-width="2" transform="matrix(1 -0.0012 0.0012 1 -0.4036 0.5972)"/><line x1="513.793" x2="484.793" y1="323.957" y2="323.993" fill="none" stroke="#F3EEE2" stroke-miterlimit="10" stroke-width="2"/><rect width="28" height="52" x="444.794" y="312.046" fill="#161B41" stroke="#F3EEE2" stroke-miterlimit="10" stroke-width="2" transform="matrix(1 -0.0013 0.0013 1 -0.4359 0.5923)"/><line x1="472.793" x2="444.793" y1="324.008" y2="324.043" fill="none" stroke="#F3EEE2" stroke-miterlimit="10" stroke-width="2"/><rect width="80" height="52" x="331" y="312" fill="#161B41" stroke="#F3EEE2" stroke-miterlimit="10" stroke-width="2"/><rect width="90" height="22" x="326" y="347" fill="#161B41" stroke="#F3EEE2" stroke-miterlimit="10" stroke-width="2"/><g><g><rect id="SVGID_1_" width="89" height="21" x="327" y="348" fill="#93908A"/></g><g><defs><rect id="SVGID_13_" width="89" height="21" x="327" y="348"/></defs><clipPath id="SVGID_14_"><use overflow="visible" xlink:href="#SVGID_13_"/></clipPath><g clip-path="url(#SVGID_14_)"><line x1="418.797" x2="427.408" y1="370.5" y2="346.42" fill="none" stroke="#F3EEE2" stroke-miterlimit="10" stroke-width="2"/><line x1="413.457" x2="422.069" y1="370.5" y2="346.42" fill="none" stroke="#F3EEE2" stroke-miterlimit="10" stroke-width="2"/><line x1="402.777" x2="411.391" y1="370.5" y2="346.42" fill="none" stroke="#F3EEE2" stroke-miterlimit="10" stroke-width="2"/><line x1="392.1" x2="400.711" y1="370.5" y2="346.42" fill="none" stroke="#F3EEE2" stroke-miterlimit="10" stroke-width="2"/><line x1="381.42" x2="390.031" y1="370.5" y2="346.42" fill="none" stroke="#F3EEE2" stroke-miterlimit="10" stroke-width="2"/><line x1="370.741" x2="379.353" y1="370.5" y2="346.42" fill="none" stroke="#F3EEE2" stroke-miterlimit="10" stroke-width="2"/><line x1="360.063" x2="368.674" y1="370.5" y2="346.42" fill="none" stroke="#F3EEE2" stroke-miterlimit="10" stroke-width="2"/><line x1="349.383" x2="357.994" y1="370.5" y2="346.42" fill="none" stroke="#F3EEE2" stroke-miterlimit="10" stroke-width="2"/><line x1="338.703" x2="347.316" y1="370.5" y2="346.42" fill="none" stroke="#F3EEE2" stroke-miterlimit="10" stroke-width="2"/><line x1="328.024" x2="336.637" y1="370.5" y2="346.42" fill="none" stroke="#F3EEE2" stroke-miterlimit="10" stroke-width="2"/><line x1="317.346" x2="325.957" y1="370.5" y2="346.42" fill="none" stroke="#F3EEE2" stroke-miterlimit="10" stroke-width="2"/></g></g><g><rect id="SVGID_2_" width="89" height="21" x="327" y="348" fill="none" stroke="#F3EEE2" stroke-miterlimit="10" stroke-width="2"/></g></g><rect width="29" height="52" x="328.021" y="410.959" fill="#161B41" stroke="#F3EEE2" stroke-miterlimit="10" stroke-width="2" transform="matrix(-1 -0.0012 0.0012 -1 684.5258 874.3224)"/><line x1="328.018" x2="357.018" y1="422.957" y2="422.993" fill="none" stroke="#F3EEE2" stroke-miterlimit="10" stroke-width="2"/><rect width="28" height="52" x="368.981" y="411.042" fill="#161B41" stroke="#F3EEE2" stroke-miterlimit="10" stroke-width="2" transform="matrix(-1 -0.0013 0.0013 -1 765.3976 874.5789)"/><line x1="369.018" x2="397.018" y1="423.008" y2="423.043" fill="none" stroke="#F3EEE2" stroke-miterlimit="10" stroke-width="2"/><rect width="80" height="52" x="431" y="411" fill="#161B41" stroke="#F3EEE2" stroke-miterlimit="10" stroke-width="2"/><g><g><rect id="SVGID_3_" width="89" height="21" x="426" y="447" fill="#93908A"/></g><g><defs><rect id="SVGID_15_" width="89" height="21" x="426" y="447"/></defs><clipPath id="SVGID_16_"><use overflow="visible" xlink:href="#SVGID_15_"/></clipPath><g clip-path="url(#SVGID_16_)"><line x1="423.014" x2="414.402" y1="469.5" y2="445.42" fill="none" stroke="#F3EEE2" stroke-miterlimit="10" stroke-width="2"/><line x1="428.354" x2="419.741" y1="469.5" y2="445.42" fill="none" stroke="#F3EEE2" stroke-miterlimit="10" stroke-width="2"/><line x1="439.033" x2="430.42" y1="469.5" y2="445.42" fill="none" stroke="#F3EEE2" stroke-miterlimit="10" stroke-width="2"/><line x1="449.711" x2="441.1" y1="469.5" y2="445.42" fill="none" stroke="#F3EEE2" stroke-miterlimit="10" stroke-width="2"/><line x1="460.391" x2="451.779" y1="469.5" y2="445.42" fill="none" stroke="#F3EEE2" stroke-miterlimit="10" stroke-width="2"/><line x1="471.069" x2="462.458" y1="469.5" y2="445.42" fill="none" stroke="#F3EEE2" stroke-miterlimit="10" stroke-width="2"/><line x1="481.748" x2="473.137" y1="469.5" y2="445.42" fill="none" stroke="#F3EEE2" stroke-miterlimit="10" stroke-width="2"/><line x1="492.428" x2="483.816" y1="469.5" y2="445.42" fill="none" stroke="#F3EEE2" stroke-miterlimit="10" stroke-width="2"/><line x1="503.107" x2="494.494" y1="469.5" y2="445.42" fill="none" stroke="#F3EEE2" stroke-miterlimit="10" stroke-width="2"/><line x1="513.786" x2="505.174" y1="469.5" y2="445.42" fill="none" stroke="#F3EEE2" stroke-miterlimit="10" stroke-width="2"/><line x1="524.465" x2="515.854" y1="469.5" y2="445.42" fill="none" stroke="#F3EEE2" stroke-miterlimit="10" stroke-width="2"/></g></g><g><rect id="SVGID_4_" width="89" height="21" x="426" y="447" fill="none" stroke="#F3EEE2" stroke-miterlimit="10" stroke-width="2"/></g></g><rect width="29" height="52" x="484.834" y="509.952" fill="#161B41" stroke="#F3EEE2" stroke-miterlimit="10" stroke-width="2" transform="matrix(1 -0.0012 0.0012 1 -0.6313 0.5889)"/><line x1="513.793" x2="484.793" y1="521.957" y2="521.993" fill="none" stroke="#F3EEE2" stroke-miterlimit="10" stroke-width="2"/><rect width="28" height="52" x="444.786" y="510.045" fill="#161B41" stroke="#F3EEE2" stroke-miterlimit="10" stroke-width="2" transform="matrix(1 -0.0013 0.0013 1 -0.6913 0.5925)"/><line x1="472.793" x2="444.793" y1="522.008" y2="522.043" fill="none" stroke="#F3EEE2" stroke-miterlimit="10" stroke-width="2"/><rect width="29" height="52" x="484.845" y="729.952" fill="#161B41" stroke="#F3EEE2" stroke-miterlimit="10" stroke-width="2" transform="matrix(1 -0.0012 0.0012 1 -0.8906 0.5891)"/><line x1="513.793" x2="484.793" y1="741.957" y2="741.993" fill="none" stroke="#F3EEE2" stroke-miterlimit="10" stroke-width="2"/><rect width="28" height="52" x="444.776" y="730.045" fill="#161B41" stroke="#F3EEE2" stroke-miterlimit="10" stroke-width="2" transform="matrix(1 -0.0013 0.0013 1 -0.9753 0.5927)"/><line x1="472.793" x2="444.793" y1="742.008" y2="742.043" fill="none" stroke="#F3EEE2" stroke-miterlimit="10" stroke-width="2"/><rect width="80" height="52" x="331" y="510" fill="#161B41" stroke="#F3EEE2" stroke-miterlimit="10" stroke-width="2"/><g><g><rect id="SVGID_5_" width="89" height="21" x="327" y="546" fill="#93908A"/></g><g><defs><rect id="SVGID_17_" width="89" height="21" x="327" y="546"/></defs><clipPath id="SVGID_18_"><use overflow="visible" xlink:href="#SVGID_17_"/></clipPath><g clip-path="url(#SVGID_18_)"><line x1="418.797" x2="427.408" y1="568.5" y2="544.42" fill="none" stroke="#F3EEE2" stroke-miterlimit="10" stroke-width="2"/><line x1="413.457" x2="422.069" y1="568.5" y2="544.42" fill="none" stroke="#F3EEE2" stroke-miterlimit="10" stroke-width="2"/><line x1="402.777" x2="411.391" y1="568.5" y2="544.42" fill="none" stroke="#F3EEE2" stroke-miterlimit="10" stroke-width="2"/><line x1="392.1" x2="400.711" y1="568.5" y2="544.42" fill="none" stroke="#F3EEE2" stroke-miterlimit="10" stroke-width="2"/><line x1="381.42" x2="390.031" y1="568.5" y2="544.42" fill="none" stroke="#F3EEE2" stroke-miterlimit="10" stroke-width="2"/><line x1="370.741" x2="379.353" y1="568.5" y2="544.42" fill="none" stroke="#F3EEE2" stroke-miterlimit="10" stroke-width="2"/><line x1="360.063" x2="368.674" y1="568.5" y2="544.42" fill="none" stroke="#F3EEE2" stroke-miterlimit="10" stroke-width="2"/><line x1="349.383" x2="357.994" y1="568.5" y2="544.42" fill="none" stroke="#F3EEE2" stroke-miterlimit="10" stroke-width="2"/><line x1="338.703" x2="347.316" y1="568.5" y2="544.42" fill="none" stroke="#F3EEE2" stroke-miterlimit="10" stroke-width="2"/><line x1="328.024" x2="336.637" y1="568.5" y2="544.42" fill="none" stroke="#F3EEE2" stroke-miterlimit="10" stroke-width="2"/><line x1="317.346" x2="325.957" y1="568.5" y2="544.42" fill="none" stroke="#F3EEE2" stroke-miterlimit="10" stroke-width="2"/></g></g><g><rect id="SVGID_6_" width="89" height="21" x="327" y="546" fill="none" stroke="#F3EEE2" stroke-miterlimit="10" stroke-width="2"/></g></g><rect width="29" height="52" x="328.029" y="608.96" fill="#161B41" stroke="#F3EEE2" stroke-miterlimit="10" stroke-width="2" transform="matrix(-1 -0.0012 0.0012 -1 684.2886 1270.3347)"/><line x1="328.018" x2="357.018" y1="620.957" y2="620.993" fill="none" stroke="#F3EEE2" stroke-miterlimit="10" stroke-width="2"/><rect width="28" height="52" x="368.972" y="609.042" fill="#161B41" stroke="#F3EEE2" stroke-miterlimit="10" stroke-width="2" transform="matrix(-1 -0.0013 0.0013 -1 765.1245 1270.5786)"/><line x1="369.018" x2="397.018" y1="621.008" y2="621.043" fill="none" stroke="#F3EEE2" stroke-miterlimit="10" stroke-width="2"/><rect width="80" height="52" x="431" y="609" fill="#161B41" stroke="#F3EEE2" stroke-miterlimit="10" stroke-width="2"/><g><g><rect id="SVGID_7_" width="89" height="21" x="426" y="645" fill="#93908A"/></g><g><defs><rect id="SVGID_19_" width="89" height="21" x="426" y="645"/></defs><clipPath id="SVGID_20_"><use overflow="visible" xlink:href="#SVGID_19_"/></clipPath><g clip-path="url(#SVGID_20_)"><line x1="423.014" x2="414.402" y1="667.5" y2="643.42" fill="none" stroke="#F3EEE2" stroke-miterlimit="10" stroke-width="2"/><line x1="428.354" x2="419.741" y1="667.5" y2="643.42" fill="none" stroke="#F3EEE2" stroke-miterlimit="10" stroke-width="2"/><line x1="439.033" x2="430.42" y1="667.5" y2="643.42" fill="none" stroke="#F3EEE2" stroke-miterlimit="10" stroke-width="2"/><line x1="449.711" x2="441.1" y1="667.5" y2="643.42" fill="none" stroke="#F3EEE2" stroke-miterlimit="10" stroke-width="2"/><line x1="460.391" x2="451.779" y1="667.5" y2="643.42" fill="none" stroke="#F3EEE2" stroke-miterlimit="10" stroke-width="2"/><line x1="471.069" x2="462.458" y1="667.5" y2="643.42" fill="none" stroke="#F3EEE2" stroke-miterlimit="10" stroke-width="2"/><line x1="481.748" x2="473.137" y1="667.5" y2="643.42" fill="none" stroke="#F3EEE2" stroke-miterlimit="10" stroke-width="2"/><line x1="492.428" x2="483.816" y1="667.5" y2="643.42" fill="none" stroke="#F3EEE2" stroke-miterlimit="10" stroke-width="2"/><line x1="503.107" x2="494.494" y1="667.5" y2="643.42" fill="none" stroke="#F3EEE2" stroke-miterlimit="10" stroke-width="2"/><line x1="513.786" x2="505.174" y1="667.5" y2="643.42" fill="none" stroke="#F3EEE2" stroke-miterlimit="10" stroke-width="2"/><line x1="524.465" x2="515.854" y1="667.5" y2="643.42" fill="none" stroke="#F3EEE2" stroke-miterlimit="10" stroke-width="2"/></g></g><g><rect id="SVGID_8_" width="89" height="21" x="426" y="645" fill="none" stroke="#F3EEE2" stroke-miterlimit="10" stroke-width="2"/></g></g><rect width="229" height="207" x="572" y="476" fill="#93908A"/><line x1="802" x2="573" y1="595" y2="595" fill="none" stroke="#054354" stroke-miterlimit="10" stroke-width="4"/><rect width="229" height="86" x="573" y="710" fill="#93908A"/><g><rect width="69" height="65" x="596" y="729" fill="#161B41" stroke="#F3EEE2" stroke-miterlimit="10" stroke-width="2"/><line x1="596" x2="665" y1="744" y2="744" fill="none" stroke="#F3EEE2" stroke-miterlimit="10" stroke-width="2"/></g><g><g><line x1="630" x2="630" y1="795" y2="730" fill="none" stroke="#F3EEE2" stroke-miterlimit="10" stroke-width="2"/></g><g><line x1="626" x2="626" y1="777" y2="755" fill="none" stroke="#F3EEE2" stroke-miterlimit="10" stroke-width="2"/></g><g><line x1="634" x2="634" y1="777" y2="755" fill="none" stroke="#F3EEE2" stroke-miterlimit="10" stroke-width="2"/></g></g><line x1="571" x2="803" y1="444" y2="444" fill="none" stroke="#A0AEA6" stroke-miterlimit="10" stroke-width="2"/><line x1="571" x2="803" y1="469" y2="469" fill="none" stroke="#A0AEA6" stroke-miterlimit="10" stroke-width="2"/><line x1="801" x2="801" y1="470" y2="445" fill="none" stroke="#A0AEA6" stroke-miterlimit="10" stroke-width="2"/><line x1="791" x2="791" y1="470" y2="445" fill="none" stroke="#A0AEA6" stroke-miterlimit="10" stroke-width="2"/><line x1="781" x2="781" y1="470" y2="445" fill="none" stroke="#A0AEA6" stroke-miterlimit="10" stroke-width="2"/><line x1="771" x2="771" y1="470" y2="445" fill="none" stroke="#A0AEA6" stroke-miterlimit="10" stroke-width="2"/><line x1="761" x2="761" y1="470" y2="445" fill="none" stroke="#A0AEA6" stroke-miterlimit="10" stroke-width="2"/><line x1="751" x2="751" y1="470" y2="445" fill="none" stroke="#A0AEA6" stroke-miterlimit="10" stroke-width="2"/><line x1="741" x2="741" y1="470" y2="445" fill="none" stroke="#A0AEA6" stroke-miterlimit="10" stroke-width="2"/><line x1="731" x2="731" y1="470" y2="445" fill="none" stroke="#A0AEA6" stroke-miterlimit="10" stroke-width="2"/><line x1="721" x2="721" y1="470" y2="445" fill="none" stroke="#A0AEA6" stroke-miterlimit="10" stroke-width="2"/><line x1="701" x2="701" y1="470" y2="445" fill="none" stroke="#A0AEA6" stroke-miterlimit="10" stroke-width="2"/><line x1="682" x2="682" y1="470" y2="445" fill="none" stroke="#A0AEA6" stroke-miterlimit="10" stroke-width="2"/><line x1="652" x2="652" y1="470" y2="445" fill="none" stroke="#A0AEA6" stroke-miterlimit="10" stroke-width="2"/><line x1="662" x2="662" y1="470" y2="445" fill="none" stroke="#A0AEA6" stroke-miterlimit="10" stroke-width="2"/><line x1="632" x2="632" y1="470" y2="445" fill="none" stroke="#A0AEA6" stroke-miterlimit="10" stroke-width="2"/><line x1="612" x2="612" y1="470" y2="445" fill="none" stroke="#A0AEA6" stroke-miterlimit="10" stroke-width="2"/><line x1="592" x2="592" y1="470" y2="445" fill="none" stroke="#A0AEA6" stroke-miterlimit="10" stroke-width="2"/><line x1="711" x2="711" y1="470" y2="445" fill="none" stroke="#A0AEA6" stroke-miterlimit="10" stroke-width="2"/><line x1="691" x2="691" y1="470" y2="445" fill="none" stroke="#A0AEA6" stroke-miterlimit="10" stroke-width="2"/><line x1="672" x2="672" y1="470" y2="445" fill="none" stroke="#A0AEA6" stroke-miterlimit="10" stroke-width="2"/><line x1="642" x2="642" y1="470" y2="445" fill="none" stroke="#A0AEA6" stroke-miterlimit="10" stroke-width="2"/><line x1="622" x2="622" y1="470" y2="445" fill="none" stroke="#A0AEA6" stroke-miterlimit="10" stroke-width="2"/><line x1="602" x2="602" y1="470" y2="445" fill="none" stroke="#A0AEA6" stroke-miterlimit="10" stroke-width="2"/><line x1="582" x2="582" y1="470" y2="445" fill="none" stroke="#A0AEA6" stroke-miterlimit="10" stroke-width="2"/><line x1="572" x2="572" y1="470" y2="445" fill="none" stroke="#A0AEA6" stroke-miterlimit="10" stroke-width="2"/><rect width="232" height="11" x="571" y="690" fill="#F3EEE2"/><rect width="3" height="32" x="591" y="435" fill="none" stroke="#A0AEA6" stroke-miterlimit="10" stroke-width="2"/><path fill="#93908A" stroke="#161B41" stroke-miterlimit="10" stroke-width="3" d="M577,419.35 c0-17.613,7.392-61.123,16.51-61.123c9.117,0,16.508,43.509,16.508,61.123c0,17.612-7.391,18.604-16.508,18.604 C584.392,437.952,577,436.962,577,419.35z"/><rect width="3" height="32" x="614" y="435" fill="none" stroke="#A0AEA6" stroke-miterlimit="10" stroke-width="2"/><path fill="#93908A" stroke="#161B41" stroke-miterlimit="10" stroke-width="3" d="M600,423.458 c0-13.724,7.392-47.624,16.51-47.624c9.117,0,16.508,33.9,16.508,47.624c0,13.723-7.391,14.494-16.508,14.494 C607.392,437.952,600,437.181,600,423.458z"/><rect width="29" height="52" x="751.834" y="509.939" fill="#161B41" stroke="#F3EEE2" stroke-miterlimit="10" stroke-width="2" transform="matrix(1 -0.0012 0.0012 1 -0.6492 0.9294)"/><line x1="780.793" x2="751.793" y1="521.957" y2="521.993" fill="none" stroke="#F3EEE2" stroke-miterlimit="10" stroke-width="2"/><rect width="28" height="52.001" x="711.786" y="510.057" fill="#161B41" stroke="#F3EEE2" stroke-miterlimit="10" stroke-width="2" transform="matrix(1 -0.0013 0.0013 1 -0.7098 0.9624)"/><line x1="739.793" x2="711.793" y1="522.008" y2="522.043" fill="none" stroke="#F3EEE2" stroke-miterlimit="10" stroke-width="2"/><rect width="29" height="52" x="751.844" y="729.939" fill="#161B41" stroke="#F3EEE2" stroke-miterlimit="10" stroke-width="2" transform="matrix(1 -0.0012 0.0012 1 -0.9159 0.9296)"/><line x1="780.793" x2="751.793" y1="741.957" y2="741.993" fill="none" stroke="#F3EEE2" stroke-miterlimit="10" stroke-width="2"/><rect width="28" height="52" x="711.776" y="730.057" fill="#161B41" stroke="#F3EEE2" stroke-miterlimit="10" stroke-width="2" transform="matrix(1 -0.0013 0.0013 1 -0.975 0.9372)"/><line x1="739.793" x2="711.793" y1="742.008" y2="742.043" fill="none" stroke="#F3EEE2" stroke-miterlimit="10" stroke-width="2"/><rect width="80" height="52" x="598" y="510" fill="#161B41" stroke="#F3EEE2" stroke-miterlimit="10" stroke-width="2"/><rect width="90" height="22" x="593" y="545" fill="#161B41" stroke="#F3EEE2" stroke-miterlimit="10" stroke-width="2"/><g><g><rect id="SVGID_9_" width="89" height="21" x="594" y="546" fill="#0D5938"/></g><g><defs><rect id="SVGID_21_" width="89" height="21" x="594" y="546"/></defs><clipPath id="SVGID_22_"><use overflow="visible" xlink:href="#SVGID_21_"/></clipPath><g clip-path="url(#SVGID_22_)"><line x1="685.797" x2="694.408" y1="568.5" y2="544.42" fill="none" stroke="#F3EEE2" stroke-miterlimit="10" stroke-width="2"/><line x1="680.457" x2="689.068" y1="568.5" y2="544.42" fill="none" stroke="#F3EEE2" stroke-miterlimit="10" stroke-width="2"/><line x1="669.777" x2="678.391" y1="568.5" y2="544.42" fill="none" stroke="#F3EEE2" stroke-miterlimit="10" stroke-width="2"/><line x1="659.1" x2="667.711" y1="568.5" y2="544.42" fill="none" stroke="#F3EEE2" stroke-miterlimit="10" stroke-width="2"/><line x1="648.42" x2="657.031" y1="568.5" y2="544.42" fill="none" stroke="#F3EEE2" stroke-miterlimit="10" stroke-width="2"/><line x1="637.741" x2="646.352" y1="568.5" y2="544.42" fill="none" stroke="#F3EEE2" stroke-miterlimit="10" stroke-width="2"/><line x1="627.063" x2="635.674" y1="568.5" y2="544.42" fill="none" stroke="#F3EEE2" stroke-miterlimit="10" stroke-width="2"/><line x1="616.383" x2="624.994" y1="568.5" y2="544.42" fill="none" stroke="#F3EEE2" stroke-miterlimit="10" stroke-width="2"/><line x1="605.703" x2="614.316" y1="568.5" y2="544.42" fill="none" stroke="#F3EEE2" stroke-miterlimit="10" stroke-width="2"/><line x1="595.024" x2="603.637" y1="568.5" y2="544.42" fill="none" stroke="#F3EEE2" stroke-miterlimit="10" stroke-width="2"/><line x1="584.346" x2="592.957" y1="568.5" y2="544.42" fill="none" stroke="#F3EEE2" stroke-miterlimit="10" stroke-width="2"/></g></g><g><rect id="SVGID_10_" width="89" height="21" x="594" y="546" fill="none" stroke="#F3EEE2" stroke-miterlimit="10" stroke-width="2"/></g></g><rect width="29" height="52" x="595.029" y="608.947" fill="#161B41" stroke="#F3EEE2" stroke-miterlimit="10" stroke-width="2" transform="matrix(-1 -0.0012 0.0012 -1 1218.2885 1270.6331)"/><line x1="595.018" x2="624.018" y1="620.957" y2="620.993" fill="none" stroke="#F3EEE2" stroke-miterlimit="10" stroke-width="2"/><rect width="28" height="52" x="635.972" y="609.054" fill="#161B41" stroke="#F3EEE2" stroke-miterlimit="10" stroke-width="2" transform="matrix(-1 -0.0013 0.0013 -1 1299.1243 1270.9465)"/><line x1="636.018" x2="664.018" y1="621.008" y2="621.043" fill="none" stroke="#F3EEE2" stroke-miterlimit="10" stroke-width="2"/><rect width="80" height="52" x="698" y="609" fill="#161B41" stroke="#F3EEE2" stroke-miterlimit="10" stroke-width="2"/><rect width="90" height="22" x="693" y="644" fill="#161B41" stroke="#F3EEE2" stroke-miterlimit="10" stroke-width="2"/><g><g><rect id="SVGID_11_" width="89" height="21" x="693" y="645" fill="#0D5938"/></g><g><defs><rect id="SVGID_23_" width="89" height="21" x="693" y="645"/></defs><clipPath id="SVGID_24_"><use overflow="visible" xlink:href="#SVGID_23_"/></clipPath><g clip-path="url(#SVGID_24_)"><line x1="690.014" x2="681.402" y1="667.5" y2="643.42" fill="none" stroke="#F3EEE2" stroke-miterlimit="10" stroke-width="2"/><line x1="695.354" x2="686.741" y1="667.5" y2="643.42" fill="none" stroke="#F3EEE2" stroke-miterlimit="10" stroke-width="2"/><line x1="706.033" x2="697.42" y1="667.5" y2="643.42" fill="none" stroke="#F3EEE2" stroke-miterlimit="10" stroke-width="2"/><line x1="716.711" x2="708.1" y1="667.5" y2="643.42" fill="none" stroke="#F3EEE2" stroke-miterlimit="10" stroke-width="2"/><line x1="727.391" x2="718.779" y1="667.5" y2="643.42" fill="none" stroke="#F3EEE2" stroke-miterlimit="10" stroke-width="2"/><line x1="738.068" x2="729.458" y1="667.5" y2="643.42" fill="none" stroke="#F3EEE2" stroke-miterlimit="10" stroke-width="2"/><line x1="748.748" x2="740.137" y1="667.5" y2="643.42" fill="none" stroke="#F3EEE2" stroke-miterlimit="10" stroke-width="2"/><line x1="759.428" x2="750.816" y1="667.5" y2="643.42" fill="none" stroke="#F3EEE2" stroke-miterlimit="10" stroke-width="2"/><line x1="770.107" x2="761.494" y1="667.5" y2="643.42" fill="none" stroke="#F3EEE2" stroke-miterlimit="10" stroke-width="2"/><line x1="780.786" x2="772.174" y1="667.5" y2="643.42" fill="none" stroke="#F3EEE2" stroke-miterlimit="10" stroke-width="2"/><line x1="791.465" x2="782.854" y1="667.5" y2="643.42" fill="none" stroke="#F3EEE2" stroke-miterlimit="10" stroke-width="2"/></g></g><g><rect id="SVGID_12_" width="89" height="21" x="693" y="645" fill="none" stroke="#F3EEE2" stroke-miterlimit="10" stroke-width="2"/></g></g></g></g></svg>