<svg xmlns="http://www.w3.org/2000/svg" xmlns:xlink="http://www.w3.org/1999/xlink" id="Capa_1" width="584" height="470.401" x="0" y="0" enable-background="new 157 340.599 584 470.401" version="1.1" viewBox="157 340.599 584 470.401" xml:space="preserve"><g id="Capa_6"><g><rect width="533" height="312" x="182" y="487" fill="#93908A"/><g><g><rect width="38" height="72" x="544" y="668" fill="#161B41" stroke="#F3EEE2" stroke-miterlimit="10" stroke-width="2"/><line x1="544" x2="582" y1="684" y2="684" fill="none" stroke="#F3EEE2" stroke-miterlimit="10" stroke-width="2"/><rect width="40" height="72" x="597" y="668" fill="#161B41" stroke="#F3EEE2" stroke-miterlimit="10" stroke-width="2"/><line x1="597" x2="637" y1="684" y2="684" fill="none" stroke="#F3EEE2" stroke-miterlimit="10" stroke-width="2"/><rect width="38" height="72" x="652" y="668" fill="#161B41" stroke="#F3EEE2" stroke-miterlimit="10" stroke-width="2"/><line x1="652" x2="690" y1="684" y2="684" fill="none" stroke="#F3EEE2" stroke-miterlimit="10" stroke-width="2"/><rect width="38" height="104" x="544" y="538" fill="#161B41" stroke="#F3EEE2" stroke-miterlimit="10" stroke-width="2"/><line x1="544" x2="582" y1="554" y2="554" fill="none" stroke="#F3EEE2" stroke-miterlimit="10" stroke-width="2"/><rect width="40" height="104" x="597" y="538" fill="#161B41" stroke="#F3EEE2" stroke-miterlimit="10" stroke-width="2"/><line x1="597" x2="637" y1="554" y2="554" fill="none" stroke="#F3EEE2" stroke-miterlimit="10" stroke-width="2"/><rect width="38" height="104" x="652" y="538" fill="#161B41" stroke="#F3EEE2" stroke-miterlimit="10" stroke-width="2"/><line x1="652" x2="690" y1="554" y2="554" fill="none" stroke="#F3EEE2" stroke-miterlimit="10" stroke-width="2"/></g><g><rect width="39" height="72" x="206" y="668" fill="#161B41" stroke="#F3EEE2" stroke-miterlimit="10" stroke-width="2"/><line x1="206" x2="245" y1="684" y2="684" fill="none" stroke="#F3EEE2" stroke-miterlimit="10" stroke-width="2"/><rect width="40" height="72" x="258" y="668" fill="#161B41" stroke="#F3EEE2" stroke-miterlimit="10" stroke-width="2"/><line x1="258" x2="298" y1="684" y2="684" fill="none" stroke="#F3EEE2" stroke-miterlimit="10" stroke-width="2"/><rect width="38" height="72" x="313" y="668" fill="#161B41" stroke="#F3EEE2" stroke-miterlimit="10" stroke-width="2"/><line x1="313" x2="351" y1="684" y2="684" fill="none" stroke="#F3EEE2" stroke-miterlimit="10" stroke-width="2"/><rect width="39" height="104" x="206" y="538" fill="#161B41" stroke="#F3EEE2" stroke-miterlimit="10" stroke-width="2"/><line x1="206" x2="245" y1="554" y2="554" fill="none" stroke="#F3EEE2" stroke-miterlimit="10" stroke-width="2"/><rect width="40" height="104" x="258" y="538" fill="#161B41" stroke="#F3EEE2" stroke-miterlimit="10" stroke-width="2"/><line x1="258" x2="298" y1="554" y2="554" fill="none" stroke="#F3EEE2" stroke-miterlimit="10" stroke-width="2"/><rect width="38" height="104" x="313" y="538" fill="#161B41" stroke="#F3EEE2" stroke-miterlimit="10" stroke-width="2"/><line x1="313" x2="351" y1="554" y2="554" fill="none" stroke="#F3EEE2" stroke-miterlimit="10" stroke-width="2"/></g><path fill="#161B41" stroke="#F3EEE2" stroke-miterlimit="10" stroke-width="2" d="M484,658.809v-0.002 c0-13.274-15.582-24.035-35.173-24.035s-35.323,10.776-35.323,24.053L413.938,759H484V658.809z"/><rect width="7" height="268" x="499" y="498" fill="#311E60"/><rect width="7" height="268" x="510" y="498" fill="#311E60"/><rect width="7" height="268" x="520" y="498" fill="#311E60"/><rect width="7" height="268" x="374" y="498" fill="#311E60"/><rect width="7" height="268" x="385" y="498" fill="#311E60"/><rect width="7" height="268" x="395" y="498" fill="#311E60"/></g><polygon fill="#5730A0" points="631.086 448 446.471 347.399 258.324 448"/><rect width="584" height="24" x="157" y="480" fill="#5730A0"/><rect width="489" height="16" x="204" y="456" fill="#5730A0"/><rect width="256" height="8" x="321" y="766" fill="#5730A0"/><rect width="339" height="9" x="278" y="780" fill="#5730A0"/><rect width="391" height="16" x="254" y="795" fill="#5730A0"/><path fill="#E5E4E3" d="M470.092,582.297c0,16.756-9.438,30.334-21.08,30.334c-11.639,0-21.078-13.578-21.078-30.334 c0-16.752,9.439-30.334,21.078-30.334C460.652,551.963,470.092,565.545,470.092,582.297z"/></g></g></svg>