<svg xmlns="http://www.w3.org/2000/svg" xmlns:xlink="http://www.w3.org/1999/xlink" id="Capa_1" width="705" height="557.5" x="0" y="0" enable-background="new 147 252.5 705 557.5" version="1.1" viewBox="147 252.5 705 557.5" xml:space="preserve"><g id="Capa_6"><g><rect width="229" height="382" x="385" y="314" fill="#93908A"/><line x1="614" x2="385" y1="483.5" y2="483.5" fill="none" stroke="#161B41" stroke-miterlimit="10" stroke-width="5"/><line x1="614" x2="385" y1="590.5" y2="590.5" fill="none" stroke="#161B41" stroke-miterlimit="10" stroke-width="5"/><rect width="229" height="88" x="385" y="723" fill="#93908A"/><rect width="259" height="10" x="369.5" y="296.5" fill="#7F302F" stroke="#7F2A37" stroke-miterlimit="10"/><g><rect width="125" height="53" x="437" y="756" fill="#161B41" stroke="#F3EEE2" stroke-miterlimit="10" stroke-width="2"/><line x1="437" x2="562" y1="768" y2="768" fill="none" stroke="#F3EEE2" stroke-miterlimit="10" stroke-width="2"/></g><g><g><line x1="499" x2="499" y1="810" y2="757" fill="none" stroke="#A0AEA6" stroke-miterlimit="10" stroke-width="2"/></g><g><line x1="491" x2="491" y1="795" y2="777" fill="none" stroke="#A0AEA6" stroke-miterlimit="10" stroke-width="2"/></g><g><line x1="506" x2="506" y1="795" y2="777" fill="none" stroke="#A0AEA6" stroke-miterlimit="10" stroke-width="2"/></g></g><rect width="229" height="321" x="623" y="481" fill="#4F1B25"/><line x1="852" x2="623" y1="590" y2="590" fill="none" stroke="#161B41" stroke-miterlimit="10" stroke-width="4"/><g><rect width="35" height="52" x="644" y="614" fill="#161B41" stroke="#F3EEE2" stroke-miterlimit="10" stroke-width="2"/><line x1="645" x2="680" y1="626" y2="626" fill="none" stroke="#F3EEE2" stroke-miterlimit="10" stroke-width="2"/><rect width="34" height="52" x="694" y="614" fill="#161B41" stroke="#F3EEE2" stroke-miterlimit="10" stroke-width="2"/><line x1="695" x2="729" y1="626" y2="626" fill="none" stroke="#F3EEE2" stroke-miterlimit="10" stroke-width="2"/><rect width="35" height="52" x="743" y="614" fill="#161B41" stroke="#F3EEE2" stroke-miterlimit="10" stroke-width="2"/><line x1="744" x2="779" y1="626" y2="626" fill="none" stroke="#F3EEE2" stroke-miterlimit="10" stroke-width="2"/><rect width="34" height="52" x="793" y="614" fill="#161B41" stroke="#F3EEE2" stroke-miterlimit="10" stroke-width="2"/><line x1="794" x2="828" y1="626" y2="626" fill="none" stroke="#F3EEE2" stroke-miterlimit="10" stroke-width="2"/></g><g><rect width="35" height="52" x="644" y="510" fill="#161B41" stroke="#F3EEE2" stroke-miterlimit="10" stroke-width="2"/><line x1="645" x2="680" y1="522" y2="522" fill="none" stroke="#F3EEE2" stroke-miterlimit="10" stroke-width="2"/><rect width="34" height="52" x="694" y="510" fill="#161B41" stroke="#F3EEE2" stroke-miterlimit="10" stroke-width="2"/><line x1="695" x2="729" y1="522" y2="522" fill="none" stroke="#F3EEE2" stroke-miterlimit="10" stroke-width="2"/><rect width="35" height="52" x="743" y="510" fill="#161B41" stroke="#F3EEE2" stroke-miterlimit="10" stroke-width="2"/><line x1="744" x2="779" y1="522" y2="522" fill="none" stroke="#F3EEE2" stroke-miterlimit="10" stroke-width="2"/><rect width="34" height="52" x="793" y="510" fill="#161B41" stroke="#F3EEE2" stroke-miterlimit="10" stroke-width="2"/><line x1="794" x2="828" y1="522" y2="522" fill="none" stroke="#F3EEE2" stroke-miterlimit="10" stroke-width="2"/></g><rect width="229" height="321" x="147" y="481" fill="#4F1B25"/><line x1="376" x2="147" y1="590" y2="590" fill="none" stroke="#161B41" stroke-miterlimit="10" stroke-width="4"/><g><rect width="35" height="112" x="406" y="349" fill="#161B41" stroke="#F3EEE2" stroke-miterlimit="10" stroke-width="2"/><line x1="407" x2="442" y1="361" y2="361" fill="none" stroke="#F3EEE2" stroke-miterlimit="10" stroke-width="2"/><rect width="34" height="112" x="456" y="349" fill="#161B41" stroke="#F3EEE2" stroke-miterlimit="10" stroke-width="2"/><line x1="457" x2="491" y1="361" y2="361" fill="none" stroke="#F3EEE2" stroke-miterlimit="10" stroke-width="2"/><rect width="35" height="112" x="505" y="349" fill="#161B41" stroke="#F3EEE2" stroke-miterlimit="10" stroke-width="2"/><line x1="506" x2="541" y1="361" y2="361" fill="none" stroke="#F3EEE2" stroke-miterlimit="10" stroke-width="2"/><rect width="34" height="112" x="555" y="349" fill="#161B41" stroke="#F3EEE2" stroke-miterlimit="10" stroke-width="2"/><line x1="556" x2="590" y1="361" y2="361" fill="none" stroke="#F3EEE2" stroke-miterlimit="10" stroke-width="2"/></g><rect width="67" height="66" x="463" y="257" fill="#7F2A37" stroke="#F3EEE2" stroke-miterlimit="10" stroke-width="2"/><text fill="#CCC8B4" font-family="'ArialMT'" font-size="71.81" transform="matrix(1 0 0 1 476.3848 306.4512)">+</text><text fill="none" stroke="#A0AEA6" stroke-miterlimit="10" stroke-width="2" font-family="'ArialMT'" font-size="71.81" transform="matrix(1 0 0 1 476.3848 306.4512)">+</text><rect width="269" height="11" x="365.5" y="703.5" fill="#7F302F" stroke="#7F2A37" stroke-miterlimit="10"/><g><rect width="124" height="72" x="667" y="727" fill="#161B41" stroke="#F3EEE2" stroke-miterlimit="10" stroke-width="2"/><line x1="668" x2="792" y1="739" y2="739" fill="none" stroke="#F3EEE2" stroke-miterlimit="10" stroke-width="2"/></g><g><rect width="124" height="72" x="190" y="728" fill="#161B41" stroke="#F3EEE2" stroke-miterlimit="10" stroke-width="2"/><line x1="192" x2="316" y1="740" y2="740" fill="none" stroke="#F3EEE2" stroke-miterlimit="10" stroke-width="2"/></g><g><rect width="35" height="52" x="167" y="614" fill="#161B41" stroke="#F3EEE2" stroke-miterlimit="10" stroke-width="2"/><line x1="168" x2="203" y1="626" y2="626" fill="none" stroke="#F3EEE2" stroke-miterlimit="10" stroke-width="2"/><rect width="34" height="52" x="217" y="614" fill="#161B41" stroke="#F3EEE2" stroke-miterlimit="10" stroke-width="2"/><line x1="218" x2="252" y1="626" y2="626" fill="none" stroke="#F3EEE2" stroke-miterlimit="10" stroke-width="2"/><rect width="35" height="52" x="266" y="614" fill="#161B41" stroke="#F3EEE2" stroke-miterlimit="10" stroke-width="2"/><line x1="267" x2="302" y1="626" y2="626" fill="none" stroke="#F3EEE2" stroke-miterlimit="10" stroke-width="2"/><rect width="34" height="52" x="316" y="614" fill="#161B41" stroke="#F3EEE2" stroke-miterlimit="10" stroke-width="2"/><line x1="317" x2="351" y1="626" y2="626" fill="none" stroke="#F3EEE2" stroke-miterlimit="10" stroke-width="2"/></g><g><rect width="35" height="52" x="167" y="510" fill="#161B41" stroke="#F3EEE2" stroke-miterlimit="10" stroke-width="2"/><line x1="168" x2="203" y1="522" y2="522" fill="none" stroke="#F3EEE2" stroke-miterlimit="10" stroke-width="2"/><rect width="34" height="52" x="217" y="510" fill="#161B41" stroke="#F3EEE2" stroke-miterlimit="10" stroke-width="2"/><line x1="218" x2="252" y1="522" y2="522" fill="none" stroke="#F3EEE2" stroke-miterlimit="10" stroke-width="2"/><rect width="35" height="52" x="266" y="510" fill="#161B41" stroke="#F3EEE2" stroke-miterlimit="10" stroke-width="2"/><line x1="267" x2="302" y1="522" y2="522" fill="none" stroke="#F3EEE2" stroke-miterlimit="10" stroke-width="2"/><rect width="34" height="52" x="316" y="510" fill="#161B41" stroke="#F3EEE2" stroke-miterlimit="10" stroke-width="2"/><line x1="317" x2="351" y1="522" y2="522" fill="none" stroke="#F3EEE2" stroke-miterlimit="10" stroke-width="2"/></g><g><rect width="35" height="52" x="404" y="614" fill="#161B41" stroke="#F3EEE2" stroke-miterlimit="10" stroke-width="2"/><line x1="405" x2="440" y1="626" y2="626" fill="none" stroke="#F3EEE2" stroke-miterlimit="10" stroke-width="2"/><rect width="34" height="52" x="454" y="614" fill="#161B41" stroke="#F3EEE2" stroke-miterlimit="10" stroke-width="2"/><line x1="455" x2="489" y1="626" y2="626" fill="none" stroke="#F3EEE2" stroke-miterlimit="10" stroke-width="2"/><rect width="35" height="52" x="503" y="614" fill="#161B41" stroke="#F3EEE2" stroke-miterlimit="10" stroke-width="2"/><line x1="504" x2="539" y1="626" y2="626" fill="none" stroke="#F3EEE2" stroke-miterlimit="10" stroke-width="2"/><rect width="34" height="52" x="553" y="614" fill="#161B41" stroke="#F3EEE2" stroke-miterlimit="10" stroke-width="2"/><line x1="554" x2="588" y1="626" y2="626" fill="none" stroke="#F3EEE2" stroke-miterlimit="10" stroke-width="2"/></g><g><rect width="35" height="52" x="404" y="510" fill="#161B41" stroke="#F3EEE2" stroke-miterlimit="10" stroke-width="2"/><line x1="405" x2="440" y1="522" y2="522" fill="none" stroke="#F3EEE2" stroke-miterlimit="10" stroke-width="2"/><rect width="34" height="52" x="454" y="510" fill="#161B41" stroke="#F3EEE2" stroke-miterlimit="10" stroke-width="2"/><line x1="455" x2="489" y1="522" y2="522" fill="none" stroke="#F3EEE2" stroke-miterlimit="10" stroke-width="2"/><rect width="35" height="52" x="503" y="510" fill="#161B41" stroke="#F3EEE2" stroke-miterlimit="10" stroke-width="2"/><line x1="504" x2="539" y1="522" y2="522" fill="none" stroke="#F3EEE2" stroke-miterlimit="10" stroke-width="2"/><rect width="34" height="52" x="553" y="510" fill="#161B41" stroke="#F3EEE2" stroke-miterlimit="10" stroke-width="2"/><line x1="554" x2="588" y1="522" y2="522" fill="none" stroke="#F3EEE2" stroke-miterlimit="10" stroke-width="2"/></g></g></g></svg>