<svg xmlns="http://www.w3.org/2000/svg" xmlns:xlink="http://www.w3.org/1999/xlink" id="Capa_1" width="686" height="515.143" x="0" y="0" enable-background="new 158 295.857 686 515.143" version="1.1" viewBox="158 295.857 686 515.143" xml:space="preserve"><g id="Capa_6"><g><rect width="686" height="150" x="158" y="644" fill="#93908A"/><rect width="134" height="151" x="353" y="643" fill="#EECE4C"/><line x1="488" x2="844" y1="711" y2="711" fill="none" stroke="#F3EEE2" stroke-miterlimit="10" stroke-width="4"/><line x1="158" x2="352" y1="711" y2="711" fill="none" stroke="#F3EEE2" stroke-miterlimit="10" stroke-width="4"/><g><rect width="38" height="42" x="515" y="729" fill="#161B41" stroke="#F3EEE2" stroke-miterlimit="10" stroke-width="2"/><line x1="515" x2="553" y1="745" y2="745" fill="none" stroke="#F3EEE2" stroke-miterlimit="10" stroke-width="2"/><rect width="40" height="42" x="568" y="729" fill="#161B41" stroke="#F3EEE2" stroke-miterlimit="10" stroke-width="2"/><line x1="568" x2="608" y1="745" y2="745" fill="none" stroke="#F3EEE2" stroke-miterlimit="10" stroke-width="2"/><rect width="38" height="42" x="623" y="729" fill="#161B41" stroke="#F3EEE2" stroke-miterlimit="10" stroke-width="2"/><line x1="623" x2="661" y1="745" y2="745" fill="none" stroke="#F3EEE2" stroke-miterlimit="10" stroke-width="2"/></g><g><rect width="39" height="42" x="177" y="729" fill="#161B41" stroke="#F3EEE2" stroke-miterlimit="10" stroke-width="2"/><line x1="177" x2="216" y1="745" y2="745" fill="none" stroke="#F3EEE2" stroke-miterlimit="10" stroke-width="2"/><rect width="40" height="42" x="229" y="729" fill="#161B41" stroke="#F3EEE2" stroke-miterlimit="10" stroke-width="2"/><line x1="229" x2="269" y1="745" y2="745" fill="none" stroke="#F3EEE2" stroke-miterlimit="10" stroke-width="2"/><rect width="38" height="42" x="284" y="729" fill="#161B41" stroke="#F3EEE2" stroke-miterlimit="10" stroke-width="2"/><line x1="284" x2="322" y1="745" y2="745" fill="none" stroke="#F3EEE2" stroke-miterlimit="10" stroke-width="2"/></g><path fill="#161B41" stroke="#F3EEE2" stroke-miterlimit="10" stroke-width="2" d="M455,686.181L455,686.181 c0-11.085-15.582-29.068-35.173-29.068s-35.323,17.998-35.323,29.082L384.938,781H455V686.181z"/><line x1="354" x2="354" y1="791" y2="643" fill="none" stroke="#635621" stroke-miterlimit="10" stroke-width="4"/><line x1="360" x2="360" y1="643" y2="791" fill="none" stroke="#635621" stroke-miterlimit="10" stroke-width="4"/><line x1="365" x2="365" y1="791" y2="643" fill="none" stroke="#635621" stroke-miterlimit="10" stroke-width="4"/><line x1="371" x2="371" y1="643" y2="791" fill="none" stroke="#635621" stroke-miterlimit="10" stroke-width="4"/><line x1="469" x2="469" y1="791" y2="643" fill="none" stroke="#635621" stroke-miterlimit="10" stroke-width="4"/><line x1="475" x2="475" y1="643" y2="791" fill="none" stroke="#635621" stroke-miterlimit="10" stroke-width="4"/><line x1="480" x2="480" y1="791" y2="643" fill="none" stroke="#635621" stroke-miterlimit="10" stroke-width="4"/><line x1="486" x2="486" y1="643" y2="791" fill="none" stroke="#635621" stroke-miterlimit="10" stroke-width="4"/><g><rect width="38" height="36" x="515" y="657" fill="#161B41" stroke="#F3EEE2" stroke-miterlimit="10" stroke-width="2"/><rect width="40" height="36" x="568" y="657" fill="#161B41" stroke="#F3EEE2" stroke-miterlimit="10" stroke-width="2"/><rect width="38" height="36" x="623" y="657" fill="#161B41" stroke="#F3EEE2" stroke-miterlimit="10" stroke-width="2"/></g><g><rect width="38" height="42" x="681" y="729" fill="#161B41" stroke="#F3EEE2" stroke-miterlimit="10" stroke-width="2"/><line x1="681" x2="719" y1="745" y2="745" fill="none" stroke="#F3EEE2" stroke-miterlimit="10" stroke-width="2"/><rect width="40" height="42" x="734" y="729" fill="#161B41" stroke="#F3EEE2" stroke-miterlimit="10" stroke-width="2"/><line x1="734" x2="774" y1="745" y2="745" fill="none" stroke="#F3EEE2" stroke-miterlimit="10" stroke-width="2"/><rect width="38" height="42" x="789" y="729" fill="#161B41" stroke="#F3EEE2" stroke-miterlimit="10" stroke-width="2"/><line x1="789" x2="827" y1="745" y2="745" fill="none" stroke="#F3EEE2" stroke-miterlimit="10" stroke-width="2"/></g><g><rect width="38" height="36" x="681" y="657" fill="#161B41" stroke="#F3EEE2" stroke-miterlimit="10" stroke-width="2"/><rect width="40" height="36" x="734" y="657" fill="#161B41" stroke="#F3EEE2" stroke-miterlimit="10" stroke-width="2"/><rect width="38" height="36" x="789" y="657" fill="#161B41" stroke="#F3EEE2" stroke-miterlimit="10" stroke-width="2"/></g><g><rect width="39" height="36" x="177" y="657" fill="#161B41" stroke="#F3EEE2" stroke-miterlimit="10" stroke-width="2"/><rect width="40" height="36" x="229" y="657" fill="#161B41" stroke="#F3EEE2" stroke-miterlimit="10" stroke-width="2"/><rect width="38" height="36" x="284" y="657" fill="#161B41" stroke="#F3EEE2" stroke-miterlimit="10" stroke-width="2"/></g><g><rect width="49" height="18" x="396" y="616" fill="#EECE4C"/></g><rect width="256" height="8" x="292" y="788" fill="#635621"/><rect width="339" height="9" x="249" y="802" fill="#635621"/><rect width="70" height="172" x="385" y="434" fill="#EECE4C"/><rect width="93" height="7" x="374" y="421" fill="#635621"/><ellipse cx="421.515" cy="363.721" fill="#A0AEA6" rx="6.124" ry="2.631"/><ellipse cx="421.515" cy="358.721" fill="#A0AEA6" rx="4.976" ry="2.631"/><path fill="#EECE4C" d="M455.594,413c0-15-14.152-46.878-34.078-46.878c-19.93,0-35.08,31.878-35.08,46.878H455.594z"/><path fill="#EECE4C" d="M475.07,597.609c0,0-2.48,22.323,3.989,24.909c6.47,2.59,13.318,6.035,12.673,10.564L488.953,643H454 v-56.803C454,586.197,475.393,590.814,475.07,597.609z"/><path fill="#EECE4C" d="M364.098,597.609c0,0,2.565,22.323-3.904,24.909c-6.47,2.59-13.276,6.035-12.631,10.564l2.821,9.916H385 v-56.803C385,586.197,363.775,590.814,364.098,597.609z"/><line x1="451" x2="451" y1="434" y2="606" fill="none" stroke="#635621" stroke-miterlimit="10" stroke-width="4"/><line x1="390" x2="390" y1="434" y2="606" fill="none" stroke="#635621" stroke-miterlimit="10" stroke-width="4"/><polyline fill="#A0AEA6" points="420.38 362.826 421.796 295.857 424.173 362.826"/><circle cx="419.978" cy="468.935" r="19.726" fill="#161B41"/></g></g></svg>