<svg xmlns="http://www.w3.org/2000/svg" xmlns:xlink="http://www.w3.org/1999/xlink" id="Capa_1" width="701" height="319" x="0" y="0" enable-background="new 156 492 701 319" version="1.1" viewBox="156 492 701 319" xml:space="preserve"><g id="Capa_6"><g><rect width="70" height="14" x="507" y="492" fill="#1E6399"/><rect width="70" height="14" x="507" y="506" fill="#F3EEE2"/><rect width="70" height="14" x="507" y="520" fill="#1E6399"/><rect width="227" height="96" x="178" y="713" fill="#173D6B"/><rect width="227" height="85" x="178" y="616" fill="#173D6B"/><rect width="227" height="85" x="610" y="616" fill="#173D6B"/><rect width="227" height="96" x="610" y="713" fill="#173D6B"/><polygon fill="#2F7BEA" points="598 598 415 599 415 811 598 811"/><g><rect width="125" height="83" x="446" y="727" fill="#161B41" stroke="#F3EEE2" stroke-miterlimit="10" stroke-width="2"/><line x1="446" x2="571" y1="739" y2="739" fill="none" stroke="#F3EEE2" stroke-miterlimit="10" stroke-width="2"/></g><g><rect width="125" height="57" x="446" y="629" fill="#161B41" stroke="#F3EEE2" stroke-miterlimit="10" stroke-width="2"/><line x1="446" x2="571" y1="641" y2="641" fill="none" stroke="#F3EEE2" stroke-miterlimit="10" stroke-width="2"/></g><g><g><line x1="508" x2="508" y1="811" y2="726" fill="none" stroke="#A0AEA6" stroke-miterlimit="10" stroke-width="2"/></g><g><line x1="500" x2="500" y1="779" y2="761" fill="none" stroke="#A0AEA6" stroke-miterlimit="10" stroke-width="2"/></g><g><line x1="515" x2="515" y1="779" y2="761" fill="none" stroke="#A0AEA6" stroke-miterlimit="10" stroke-width="2"/></g></g><rect width="701" height="28" x="156" y="579" fill="#2F7BEA"/><ellipse cx="508.305" cy="690.498" fill="#F3EEE2" rx="14.942" ry="21.504"/><line x1="507" x2="507" y1="580" y2="492" fill="none" stroke="#F3EEE2" stroke-miterlimit="10" stroke-width="2"/><g><rect width="35" height="52" x="633" y="727" fill="#161B41" stroke="#F3EEE2" stroke-miterlimit="10" stroke-width="2"/><line x1="633" x2="668" y1="739" y2="739" fill="none" stroke="#F3EEE2" stroke-miterlimit="10" stroke-width="2"/><rect width="34" height="52" x="683" y="727" fill="#161B41" stroke="#F3EEE2" stroke-miterlimit="10" stroke-width="2"/><line x1="683" x2="717" y1="739" y2="739" fill="none" stroke="#F3EEE2" stroke-miterlimit="10" stroke-width="2"/><rect width="35" height="52" x="730" y="727" fill="#161B41" stroke="#F3EEE2" stroke-miterlimit="10" stroke-width="2"/><line x1="730" x2="765" y1="739" y2="739" fill="none" stroke="#F3EEE2" stroke-miterlimit="10" stroke-width="2"/><rect width="35" height="52" x="779" y="727" fill="#161B41" stroke="#F3EEE2" stroke-miterlimit="10" stroke-width="2"/><line x1="779" x2="814" y1="739" y2="739" fill="none" stroke="#F3EEE2" stroke-miterlimit="10" stroke-width="2"/></g><g><rect width="35" height="52" x="633" y="633" fill="#161B41" stroke="#F3EEE2" stroke-miterlimit="10" stroke-width="2"/><line x1="633" x2="668" y1="645" y2="645" fill="none" stroke="#F3EEE2" stroke-miterlimit="10" stroke-width="2"/><rect width="34" height="52" x="683" y="633" fill="#161B41" stroke="#F3EEE2" stroke-miterlimit="10" stroke-width="2"/><line x1="683" x2="717" y1="645" y2="645" fill="none" stroke="#F3EEE2" stroke-miterlimit="10" stroke-width="2"/><rect width="35" height="52" x="730" y="633" fill="#161B41" stroke="#F3EEE2" stroke-miterlimit="10" stroke-width="2"/><line x1="730" x2="765" y1="645" y2="645" fill="none" stroke="#F3EEE2" stroke-miterlimit="10" stroke-width="2"/><rect width="35" height="52" x="779" y="633" fill="#161B41" stroke="#F3EEE2" stroke-miterlimit="10" stroke-width="2"/><line x1="779" x2="814" y1="645" y2="645" fill="none" stroke="#F3EEE2" stroke-miterlimit="10" stroke-width="2"/></g><g><rect width="35" height="52" x="204" y="727" fill="#161B41" stroke="#F3EEE2" stroke-miterlimit="10" stroke-width="2"/><line x1="204" x2="239" y1="739" y2="739" fill="none" stroke="#F3EEE2" stroke-miterlimit="10" stroke-width="2"/><rect width="34" height="52" x="254" y="727" fill="#161B41" stroke="#F3EEE2" stroke-miterlimit="10" stroke-width="2"/><line x1="254" x2="288" y1="739" y2="739" fill="none" stroke="#F3EEE2" stroke-miterlimit="10" stroke-width="2"/><rect width="35" height="52" x="301" y="727" fill="#161B41" stroke="#F3EEE2" stroke-miterlimit="10" stroke-width="2"/><line x1="301" x2="336" y1="739" y2="739" fill="none" stroke="#F3EEE2" stroke-miterlimit="10" stroke-width="2"/><rect width="35" height="52" x="350" y="727" fill="#161B41" stroke="#F3EEE2" stroke-miterlimit="10" stroke-width="2"/><line x1="350" x2="385" y1="739" y2="739" fill="none" stroke="#F3EEE2" stroke-miterlimit="10" stroke-width="2"/></g><g><rect width="35" height="52" x="204" y="633" fill="#161B41" stroke="#F3EEE2" stroke-miterlimit="10" stroke-width="2"/><line x1="204" x2="239" y1="645" y2="645" fill="none" stroke="#F3EEE2" stroke-miterlimit="10" stroke-width="2"/><rect width="34" height="52" x="254" y="633" fill="#161B41" stroke="#F3EEE2" stroke-miterlimit="10" stroke-width="2"/><line x1="254" x2="288" y1="645" y2="645" fill="none" stroke="#F3EEE2" stroke-miterlimit="10" stroke-width="2"/><rect width="35" height="52" x="301" y="633" fill="#161B41" stroke="#F3EEE2" stroke-miterlimit="10" stroke-width="2"/><line x1="301" x2="336" y1="645" y2="645" fill="none" stroke="#F3EEE2" stroke-miterlimit="10" stroke-width="2"/><rect width="35" height="52" x="350" y="633" fill="#161B41" stroke="#F3EEE2" stroke-miterlimit="10" stroke-width="2"/><line x1="350" x2="385" y1="645" y2="645" fill="none" stroke="#F3EEE2" stroke-miterlimit="10" stroke-width="2"/></g></g></g></svg>