<svg xmlns="http://www.w3.org/2000/svg" xmlns:xlink="http://www.w3.org/1999/xlink" id="Capa_1" width="777" height="523" x="0" y="0" enable-background="new 101 288 777 523" version="1.1" viewBox="101 288 777 523" xml:space="preserve"><g id="Capa_6"><g><rect width="150" height="523" x="102" y="288" fill="#93908A"/><rect width="150" height="109" x="102" y="395" fill="#2A47C4"/><rect width="150" height="97" x="102" y="617" fill="#2A47C4"/><line x1="253" x2="101" y1="615" y2="615" fill="none" stroke="#161B41" stroke-miterlimit="10" stroke-width="4"/><line x1="253" x2="101" y1="714" y2="714" fill="none" stroke="#161B41" stroke-miterlimit="10" stroke-width="4"/><g><rect width="21" height="52" x="120" y="640" fill="#161B41" stroke="#F3EEE2" stroke-miterlimit="10" stroke-width="2"/><line x1="120" x2="141" y1="652" y2="652" fill="none" stroke="#F3EEE2" stroke-miterlimit="10" stroke-width="2"/><rect width="21" height="52" x="151" y="640" fill="#161B41" stroke="#F3EEE2" stroke-miterlimit="10" stroke-width="2"/><line x1="151" x2="172" y1="652" y2="652" fill="none" stroke="#F3EEE2" stroke-miterlimit="10" stroke-width="2"/><rect width="22" height="52" x="181" y="640" fill="#161B41" stroke="#F3EEE2" stroke-miterlimit="10" stroke-width="2"/><line x1="181" x2="203" y1="652" y2="652" fill="none" stroke="#F3EEE2" stroke-miterlimit="10" stroke-width="2"/><rect width="21" height="52" x="213" y="640" fill="#161B41" stroke="#F3EEE2" stroke-miterlimit="10" stroke-width="2"/><line x1="213" x2="234" y1="652" y2="652" fill="none" stroke="#F3EEE2" stroke-miterlimit="10" stroke-width="2"/></g><g><rect width="49" height="78" x="120" y="732" fill="#161B41" stroke="#F3EEE2" stroke-miterlimit="10" stroke-width="2"/><rect width="22" height="30" x="181" y="732" fill="#161B41" stroke="#F3EEE2" stroke-miterlimit="10" stroke-width="2"/><rect width="21" height="30" x="213" y="732" fill="#161B41" stroke="#F3EEE2" stroke-miterlimit="10" stroke-width="2"/></g><g><rect width="21" height="53" x="120" y="532" fill="#161B41" stroke="#F3EEE2" stroke-miterlimit="10" stroke-width="2"/><line x1="120" x2="141" y1="544" y2="544" fill="none" stroke="#F3EEE2" stroke-miterlimit="10" stroke-width="2"/><rect width="21" height="53" x="151" y="532" fill="#161B41" stroke="#F3EEE2" stroke-miterlimit="10" stroke-width="2"/><line x1="151" x2="172" y1="544" y2="544" fill="none" stroke="#F3EEE2" stroke-miterlimit="10" stroke-width="2"/><rect width="22" height="53" x="181" y="532" fill="#161B41" stroke="#F3EEE2" stroke-miterlimit="10" stroke-width="2"/><line x1="181" x2="203" y1="544" y2="544" fill="none" stroke="#F3EEE2" stroke-miterlimit="10" stroke-width="2"/><rect width="21" height="53" x="213" y="532" fill="#161B41" stroke="#F3EEE2" stroke-miterlimit="10" stroke-width="2"/><line x1="213" x2="234" y1="544" y2="544" fill="none" stroke="#F3EEE2" stroke-miterlimit="10" stroke-width="2"/></g><line x1="253" x2="101" y1="505" y2="505" fill="none" stroke="#161B41" stroke-miterlimit="10" stroke-width="4"/><g><rect width="21" height="53" x="120" y="422" fill="#161B41" stroke="#F3EEE2" stroke-miterlimit="10" stroke-width="2"/><line x1="120" x2="141" y1="434" y2="434" fill="none" stroke="#F3EEE2" stroke-miterlimit="10" stroke-width="2"/><rect width="21" height="53" x="151" y="422" fill="#161B41" stroke="#F3EEE2" stroke-miterlimit="10" stroke-width="2"/><line x1="151" x2="172" y1="434" y2="434" fill="none" stroke="#F3EEE2" stroke-miterlimit="10" stroke-width="2"/><rect width="22" height="53" x="181" y="422" fill="#161B41" stroke="#F3EEE2" stroke-miterlimit="10" stroke-width="2"/><line x1="181" x2="203" y1="434" y2="434" fill="none" stroke="#F3EEE2" stroke-miterlimit="10" stroke-width="2"/><rect width="21" height="53" x="213" y="422" fill="#161B41" stroke="#F3EEE2" stroke-miterlimit="10" stroke-width="2"/><line x1="213" x2="234" y1="434" y2="434" fill="none" stroke="#F3EEE2" stroke-miterlimit="10" stroke-width="2"/></g><line x1="253" x2="101" y1="395" y2="395" fill="none" stroke="#161B41" stroke-miterlimit="10" stroke-width="4"/><g><rect width="21" height="53" x="120" y="312" fill="#161B41" stroke="#F3EEE2" stroke-miterlimit="10" stroke-width="2"/><line x1="120" x2="141" y1="324" y2="324" fill="none" stroke="#F3EEE2" stroke-miterlimit="10" stroke-width="2"/><rect width="21" height="53" x="151" y="312" fill="#161B41" stroke="#F3EEE2" stroke-miterlimit="10" stroke-width="2"/><line x1="151" x2="172" y1="324" y2="324" fill="none" stroke="#F3EEE2" stroke-miterlimit="10" stroke-width="2"/><rect width="22" height="53" x="181" y="312" fill="#161B41" stroke="#F3EEE2" stroke-miterlimit="10" stroke-width="2"/><line x1="181" x2="203" y1="324" y2="324" fill="none" stroke="#F3EEE2" stroke-miterlimit="10" stroke-width="2"/><rect width="21" height="53" x="213" y="312" fill="#161B41" stroke="#F3EEE2" stroke-miterlimit="10" stroke-width="2"/><line x1="213" x2="234" y1="324" y2="324" fill="none" stroke="#F3EEE2" stroke-miterlimit="10" stroke-width="2"/></g><line x1="135" x2="155" y1="746" y2="746" fill="none" stroke="#F3EEE2" stroke-miterlimit="10" stroke-width="2"/><rect width="150" height="298" x="281" y="513" fill="#93908A"/><line x1="432" x2="280" y1="615" y2="615" fill="none" stroke="#161B41" stroke-miterlimit="10" stroke-width="4"/><line x1="432" x2="280" y1="714" y2="714" fill="none" stroke="#161B41" stroke-miterlimit="10" stroke-width="4"/><g><rect width="128" height="52" x="292" y="640" fill="#161B41" stroke="#F3EEE2" stroke-miterlimit="10" stroke-width="2"/><line x1="292" x2="420" y1="652" y2="652" fill="none" stroke="#F3EEE2" stroke-miterlimit="10" stroke-width="2"/></g><g><rect width="128" height="53" x="292" y="542" fill="#161B41" stroke="#F3EEE2" stroke-miterlimit="10" stroke-width="2"/><line x1="292" x2="420" y1="554" y2="554" fill="none" stroke="#F3EEE2" stroke-miterlimit="10" stroke-width="2"/></g><line x1="432" x2="280" y1="522" y2="522" fill="none" stroke="#161B41" stroke-miterlimit="10" stroke-width="4"/><rect width="312" height="127" x="566" y="681" fill="#93908A"/><polygon fill="#2A47C4" points="859.485 482 826.203 482 818.395 676 866.318 676"/><line x1="878" x2="566" y1="694" y2="694" fill="none" stroke="#161B41" stroke-miterlimit="10" stroke-width="4"/><polyline fill="#2A47C4" points="641.26 673.773 563.549 602.45 564.166 673.165"/><polyline fill="#2A47C4" points="722.034 674.477 646.521 603.173 647.137 673.888"/><polyline fill="#2A47C4" points="803.121 675.182 727.607 603.879 728.224 674.594"/><rect width="74" height="10" x="804" y="666" fill="#2A47C4"/><rect width="5" height="46" x="512" y="755" fill="#A0AEA6"/><path fill="#93908A" stroke="#161B41" stroke-miterlimit="10" stroke-width="3" d="M483,716c0-39.765,12.943-138,28.909-138 s28.909,98.235,28.909,138s-12.943,42-28.909,42S483,755.765,483,716z"/><rect width="49" height="8" x="489" y="800" fill="#A0AEA6"/><rect width="5" height="46" x="552" y="755" fill="#A0AEA6"/><path fill="#93908A" stroke="#161B41" stroke-miterlimit="10" stroke-width="3" d="M523,688.658 c0-65.652,12.943-227.84,28.909-227.84s28.909,162.188,28.909,227.84c0,65.65-12.943,69.342-28.909,69.342S523,754.31,523,688.658 z"/><rect width="49" height="8" x="529" y="800" fill="#A0AEA6"/><rect width="150" height="95" x="281" y="716" fill="#2A47C4"/><rect width="150" height="10" x="281" y="510" fill="#2A47C4"/><g><g><line x1="354" x2="354" y1="808" y2="733" fill="none" stroke="#F3EEE2" stroke-miterlimit="10" stroke-width="2"/></g><g><line x1="340" x2="340" y1="782" y2="764" fill="none" stroke="#F3EEE2" stroke-miterlimit="10" stroke-width="2"/></g><g><line x1="366" x2="366" y1="782" y2="764" fill="none" stroke="#F3EEE2" stroke-miterlimit="10" stroke-width="2"/></g></g><g><rect width="103" height="77" x="304" y="733" fill="#161B41" stroke="#F3EEE2" stroke-miterlimit="10" stroke-width="2"/></g><g><rect width="30" height="24" x="708" y="715" fill="#161B41" stroke="#F3EEE2" stroke-miterlimit="10" stroke-width="2"/><line x1="708" x2="738" y1="721" y2="721" fill="none" stroke="#F3EEE2" stroke-miterlimit="10" stroke-width="2"/><rect width="29" height="24" x="752" y="715" fill="#161B41" stroke="#F3EEE2" stroke-miterlimit="10" stroke-width="2"/><line x1="752" x2="781" y1="721" y2="721" fill="none" stroke="#F3EEE2" stroke-miterlimit="10" stroke-width="2"/><rect width="31" height="24" x="793" y="715" fill="#161B41" stroke="#F3EEE2" stroke-miterlimit="10" stroke-width="2"/><line x1="793" x2="824" y1="721" y2="721" fill="none" stroke="#F3EEE2" stroke-miterlimit="10" stroke-width="2"/><rect width="29" height="24" x="838" y="715" fill="#161B41" stroke="#F3EEE2" stroke-miterlimit="10" stroke-width="2"/><line x1="838" x2="867" y1="721" y2="721" fill="none" stroke="#F3EEE2" stroke-miterlimit="10" stroke-width="2"/></g></g></g></svg>