<svg xmlns="http://www.w3.org/2000/svg" xmlns:xlink="http://www.w3.org/1999/xlink" id="Capa_1" width="400" height="276.5" x="0" y="0" enable-background="new 0 57.5 400 276.5" version="1.1" viewBox="0 57.5 400 276.5" xml:space="preserve"><g id="Capa_8" display="none"><g display="inline"><g><line x1="243.5" x2="243.5" y1="-2745" y2="165" fill="none" stroke="#A0AEA6" stroke-dasharray="12 12" stroke-miterlimit="10"/><line x1="243.5" x2="243.5" y1="171" y2="177" fill="none" stroke="#A0AEA6" stroke-miterlimit="10"/></g></g></g><g id="Capa_10"><g><g><path fill="#311E60" d="M66,177v156h267V177H66z M98,303H78v-27h20V303z M98,274H78v-7h20V274z M98,254H78v-43h20V254z M98,209 H78v-7h20V209z M124,303h-20v-27h20V303z M124,274h-20v-7h20V274z M124,254h-20v-43h20V254z M124,209h-20v-7h20V209z M151,303 h-19v-27h19V303z M151,274h-19v-7h19V274z M151,254h-19v-43h19V254z M151,209h-19v-7h19V209z M217,313h-34.506l-0.349-50.061 c0-6.64,7.735-12.004,17.53-12.004c9.796,0,17.324,5.461,17.324,12.101L217,313L217,313z M266,303h-19v-27h19V303z M266,274h-19 v-7h19V274z M266,254h-19v-43h19V254z M266,209h-19v-7h19V209z M294,303h-20v-27h20V303z M294,274h-20v-7h20V274z M294,254h-20 v-43h20V254z M294,209h-20v-7h20V209z M320,303h-19v-27h19V303z M320,274h-19v-7h19V274z M320,254h-19v-43h19V254z M320,209h-19 v-7h19V209z"/><g><rect width="3" height="134" x="225" y="182" fill="#5730A0"/><rect width="4" height="134" x="230" y="182" fill="#5730A0"/><rect width="4" height="134" x="236" y="182" fill="#5730A0"/><rect width="4" height="134" x="162" y="182" fill="#5730A0"/><rect width="3" height="134" x="168" y="182" fill="#5730A0"/><rect width="3" height="134" x="173" y="182" fill="#5730A0"/></g></g><polygon fill="#5730A0" points="291.068 157 198.761 106.701 104.688 157"/><rect width="292" height="12" x="54" y="173" fill="#5730A0"/><rect width="245" height="8" x="77" y="161" fill="#5730A0"/><g><rect width="128" height="6" x="136" y="316" fill="#5730A0"/><rect width="170" height="7" x="114" y="327" fill="#5730A0"/></g><ellipse cx="200.032" cy="224.62" fill="#E5E4E3" rx="10.54" ry="15.168"/></g></g></svg>