<svg xmlns="http://www.w3.org/2000/svg" xmlns:xlink="http://www.w3.org/1999/xlink" id="Capa_1" width="400" height="276.5" x="0" y="0" enable-background="new 0 56.5 400 276.5" version="1.1" viewBox="0 56.5 400 276.5" xml:space="preserve"><g id="Capa_8" display="none"><g display="inline"><g><line x1="51.5" x2="51.5" y1="-2745" y2="165" fill="none" stroke="#A0AEA6" stroke-dasharray="12 12" stroke-miterlimit="10"/><line x1="51.5" x2="51.5" y1="171" y2="177" fill="none" stroke="#A0AEA6" stroke-miterlimit="10"/></g></g></g><g id="Capa_10"><g><rect width="2" height="23" x="56" y="306" fill="#93908A"/><path fill="#37490C" d="M72.705,286.172c0-19.881-6.472-69-14.455-69c-7.982,0-14.454,49.119-14.454,69 c0,19.883,6.472,21,14.454,21C66.233,307.172,72.705,306.055,72.705,286.172z"/><rect width="2" height="23" x="358" y="306" fill="#93908A"/><path fill="#37490C" d="M376.204,271.992c0-33.309-7.144-115.594-15.954-115.594s-15.954,82.286-15.954,115.594 s7.145,35.18,15.954,35.18C369.063,307.172,376.204,305.301,376.204,271.992z"/><rect width="25" height="4" x="45" y="328" fill="#0D5938"/><rect width="2" height="23" x="36" y="306" fill="#93908A"/><path fill="#37490C" d="M52.705,272.502c0-32.826-6.472-113.92-14.455-113.92c-7.982,0-14.454,81.094-14.454,113.92 s6.472,34.67,14.454,34.67C46.233,307.172,52.705,305.328,52.705,272.502z"/><rect width="25" height="4" x="25" y="328" fill="#0D5938"/><rect width="25" height="4" x="347" y="328" fill="#0D5938"/><path fill="#A0AEA6" d="M88,67v1v1v10v2h2h3h2h3h2h3h2h3h2h3h2h3h2h3h2h3h2h3h2h3h2h3h2h2h2h3h2h3h2h3h2h3h2h3h2h3h2h3h2h3h2h3h2 h3h2h3h2v-2V69v-1v-1H88z M90,79V69h3v10H90z M95,79V69h3v10H95z M100,79V69h3v10H100z M105,79V69h3v10H105z M110,79V69h3v10H110z M115,79V69h3v10H115z M120,79V69h3v10H120z M125,79V69h3v10H125z M130,79V69h3v10H130z M135,79V69h3v10H135z M140,79V69h3v10H140 z M145,79V69h2v10H145z M149,79V69h3v10H149z M154,79V69h3v10H154z M159,79V69h3v10H159z M164,79V69h3v10H164z M169,79V69h3v10 H169z M174,79V69h3v10H174z M179,79V69h3v10H179z M184,79V69h3v10H184z M189,79V69h3v10H189z M194,79V69h3v10H194z M202,79h-3V69 h3V79z"/><rect width="115.5" height="5.5" x="88.712" y="279.668" fill="#F3EEE2" transform="matrix(-1 -0.0018 0.0018 -1 292.416 565.1002)"/><path fill="#0D5938" d="M89,290v43h114v-43H89z M100,332v-24h16v4h-2v11h2v9H100z M135,332h-17v-9h2v-11h-2v-4h17V332z M135,306 h-17v-6h-2v6h-16v-7h35V306z M158.126,325.693l-0.032-26l14-0.019l0.006,5l-14,0.019l0.003,2l14-0.019l0.023,19L158.126,325.693z M178.126,325.67l-0.032-26l14.5-0.02l0.006,5l-14.5,0.02l0.003,2l14.5-0.02l0.023,19L178.126,325.67z"/><path fill="#0D5938" d="M89,232v44h114v-44H89z M114.214,244.17l-14.499-0.02l-0.003,2l14.5,0.02l-0.023,19l-14.5-0.02l0.032-26 l14.5,0.02L114.214,244.17z M134.214,244.193l-13.999-0.019l-0.003,2l14,0.019l-0.023,19l-14-0.019l0.032-26l14,0.019 L134.214,244.193z M191,265h-40v-26h40V265z"/><g><g><rect id="SVGID_66_" width="44" height="11" x="149" y="257" fill="#93908A"/></g><g><defs><rect id="SVGID_7_" width="44" height="11" x="149" y="257"/></defs><clipPath id="SVGID_8_"><use overflow="visible" xlink:href="#SVGID_7_"/></clipPath><g clip-path="url(#SVGID_8_)"><line x1="147.212" x2="142.906" y1="268.422" y2="256.383" fill="none" stroke="#F3EEE2" stroke-miterlimit="10" stroke-width="2"/><line x1="149.882" x2="145.575" y1="268.422" y2="256.383" fill="none" stroke="#F3EEE2" stroke-miterlimit="10" stroke-width="2"/><line x1="155.222" x2="150.915" y1="268.422" y2="256.383" fill="none" stroke="#F3EEE2" stroke-miterlimit="10" stroke-width="2"/><line x1="160.561" x2="156.255" y1="268.422" y2="256.383" fill="none" stroke="#F3EEE2" stroke-miterlimit="10" stroke-width="2"/><line x1="165.9" x2="161.595" y1="268.422" y2="256.383" fill="none" stroke="#F3EEE2" stroke-miterlimit="10" stroke-width="2"/><line x1="171.239" x2="166.934" y1="268.422" y2="256.383" fill="none" stroke="#F3EEE2" stroke-miterlimit="10" stroke-width="2"/><line x1="176.579" x2="172.273" y1="268.422" y2="256.383" fill="none" stroke="#F3EEE2" stroke-miterlimit="10" stroke-width="2"/><line x1="181.919" x2="177.613" y1="268.422" y2="256.383" fill="none" stroke="#F3EEE2" stroke-miterlimit="10" stroke-width="2"/><line x1="187.259" x2="182.952" y1="268.422" y2="256.383" fill="none" stroke="#F3EEE2" stroke-miterlimit="10" stroke-width="2"/><line x1="192.598" x2="188.292" y1="268.422" y2="256.383" fill="none" stroke="#F3EEE2" stroke-miterlimit="10" stroke-width="2"/><line x1="197.938" x2="193.632" y1="268.422" y2="256.383" fill="none" stroke="#F3EEE2" stroke-miterlimit="10" stroke-width="2"/></g></g><g><rect id="SVGID_1_" width="44" height="11" x="149" y="257" fill="none" stroke="#F3EEE2" stroke-miterlimit="10" stroke-width="2"/></g></g><path fill="#0D5938" d="M89,183v44h114v-44H89z M177.328,190.17l14.5-0.02l0.032,26l-14.5,0.02l-0.023-19l14.5-0.02l-0.003-2 l-14.499,0.02L177.328,190.17z M157.328,190.193l14-0.018l0.032,26l-14,0.019l-0.023-19l14-0.018l-0.003-2l-13.999,0.018 L157.328,190.193z M101,190h40v26h-40V190z"/><g><g><rect id="SVGID_68_" width="44" height="11" x="99" y="208" fill="#93908A"/></g><g><defs><rect id="SVGID_9_" width="44" height="11" x="99" y="208"/></defs><clipPath id="SVGID_10_"><use overflow="visible" xlink:href="#SVGID_9_"/></clipPath><g clip-path="url(#SVGID_10_)"><line x1="144.337" x2="148.643" y1="219.422" y2="207.383" fill="none" stroke="#F3EEE2" stroke-miterlimit="10" stroke-width="2"/><line x1="141.667" x2="145.974" y1="219.422" y2="207.383" fill="none" stroke="#F3EEE2" stroke-miterlimit="10" stroke-width="2"/><line x1="136.327" x2="140.634" y1="219.422" y2="207.383" fill="none" stroke="#F3EEE2" stroke-miterlimit="10" stroke-width="2"/><line x1="130.988" x2="135.294" y1="219.422" y2="207.383" fill="none" stroke="#F3EEE2" stroke-miterlimit="10" stroke-width="2"/><line x1="125.648" x2="129.954" y1="219.422" y2="207.383" fill="none" stroke="#F3EEE2" stroke-miterlimit="10" stroke-width="2"/><line x1="120.31" x2="124.615" y1="219.422" y2="207.383" fill="none" stroke="#F3EEE2" stroke-miterlimit="10" stroke-width="2"/><line x1="114.97" x2="119.275" y1="219.422" y2="207.383" fill="none" stroke="#F3EEE2" stroke-miterlimit="10" stroke-width="2"/><line x1="109.63" x2="113.936" y1="219.422" y2="207.383" fill="none" stroke="#F3EEE2" stroke-miterlimit="10" stroke-width="2"/><line x1="104.29" x2="108.597" y1="219.422" y2="207.383" fill="none" stroke="#F3EEE2" stroke-miterlimit="10" stroke-width="2"/><line x1="98.951" x2="103.257" y1="219.422" y2="207.383" fill="none" stroke="#F3EEE2" stroke-miterlimit="10" stroke-width="2"/><line x1="93.611" x2="97.917" y1="219.422" y2="207.383" fill="none" stroke="#F3EEE2" stroke-miterlimit="10" stroke-width="2"/></g></g><g><rect id="SVGID_2_" width="44" height="11" x="99" y="208" fill="none" stroke="#F3EEE2" stroke-miterlimit="10" stroke-width="2"/></g></g><rect width="115.5" height="5.5" x="212.713" y="279.666" fill="#F3EEE2" transform="matrix(-1 -0.0018 0.0018 -1 540.4167 565.3177)"/><path fill="#0D5938" d="M213,290v43h114v-43H213z M224,332v-24h16v4h-2v11h2v9H224z M259,332h-17v-9h2v-11h-2v-4h17V332z M259,306 h-17v-6h-2v6h-16v-7h35V306z M282.126,325.693l-0.032-26l14-0.019l0.006,5l-14,0.019l0.004,2l14-0.019l0.022,19L282.126,325.693z M302.126,325.67l-0.032-26l14.5-0.02l0.006,5l-14.5,0.02l0.004,2l14.499-0.02l0.023,19L302.126,325.67z"/><path fill="#0D5938" d="M213,232v44h114v-44H213z M238.214,244.17l-14.499-0.02l-0.003,2l14.5,0.02l-0.022,19l-14.5-0.02l0.031-26 l14.5,0.02L238.214,244.17z M258.214,244.193l-13.999-0.019l-0.003,2l14,0.019l-0.022,19l-14-0.019l0.031-26l14,0.019 L258.214,244.193z M315,265h-40v-26h40V265z"/><g><g><rect id="SVGID_70_" width="44" height="11" x="273" y="257" fill="#93908A"/></g><g><defs><rect id="SVGID_11_" width="44" height="11" x="273" y="257"/></defs><clipPath id="SVGID_12_"><use overflow="visible" xlink:href="#SVGID_11_"/></clipPath><g clip-path="url(#SVGID_12_)"><line x1="271.212" x2="266.906" y1="268.422" y2="256.383" fill="none" stroke="#F3EEE2" stroke-miterlimit="10" stroke-width="2"/><line x1="273.882" x2="269.575" y1="268.422" y2="256.383" fill="none" stroke="#F3EEE2" stroke-miterlimit="10" stroke-width="2"/><line x1="279.223" x2="274.915" y1="268.422" y2="256.383" fill="none" stroke="#F3EEE2" stroke-miterlimit="10" stroke-width="2"/><line x1="284.561" x2="280.255" y1="268.422" y2="256.383" fill="none" stroke="#F3EEE2" stroke-miterlimit="10" stroke-width="2"/><line x1="289.9" x2="285.596" y1="268.422" y2="256.383" fill="none" stroke="#F3EEE2" stroke-miterlimit="10" stroke-width="2"/><line x1="295.239" x2="290.934" y1="268.422" y2="256.383" fill="none" stroke="#F3EEE2" stroke-miterlimit="10" stroke-width="2"/><line x1="300.579" x2="296.273" y1="268.422" y2="256.383" fill="none" stroke="#F3EEE2" stroke-miterlimit="10" stroke-width="2"/><line x1="305.919" x2="301.613" y1="268.422" y2="256.383" fill="none" stroke="#F3EEE2" stroke-miterlimit="10" stroke-width="2"/><line x1="311.259" x2="306.952" y1="268.422" y2="256.383" fill="none" stroke="#F3EEE2" stroke-miterlimit="10" stroke-width="2"/><line x1="316.598" x2="312.292" y1="268.422" y2="256.383" fill="none" stroke="#F3EEE2" stroke-miterlimit="10" stroke-width="2"/><line x1="321.938" x2="317.632" y1="268.422" y2="256.383" fill="none" stroke="#F3EEE2" stroke-miterlimit="10" stroke-width="2"/></g></g><g><rect id="SVGID_3_" width="44" height="11" x="273" y="257" fill="none" stroke="#F3EEE2" stroke-miterlimit="10" stroke-width="2"/></g></g><path fill="#0D5938" d="M213,183v44h114v-44H213z M301.328,190.17l14.5-0.02l0.032,26l-14.501,0.02l-0.022-19l14.5-0.02l-0.003-2 l-14.499,0.02L301.328,190.17z M281.328,190.193l14-0.018l0.031,26l-14,0.019l-0.022-19l14-0.018l-0.003-2l-13.999,0.018 L281.328,190.193z M225,190h40v26h-40V190z"/><g><g><rect id="SVGID_72_" width="44" height="11" x="223" y="208" fill="#93908A"/></g><g><defs><rect id="SVGID_13_" width="44" height="11" x="223" y="208"/></defs><clipPath id="SVGID_14_"><use overflow="visible" xlink:href="#SVGID_13_"/></clipPath><g clip-path="url(#SVGID_14_)"><line x1="268.337" x2="272.643" y1="219.422" y2="207.383" fill="none" stroke="#F3EEE2" stroke-miterlimit="10" stroke-width="2"/><line x1="265.667" x2="269.975" y1="219.422" y2="207.383" fill="none" stroke="#F3EEE2" stroke-miterlimit="10" stroke-width="2"/><line x1="260.327" x2="264.634" y1="219.422" y2="207.383" fill="none" stroke="#F3EEE2" stroke-miterlimit="10" stroke-width="2"/><line x1="254.988" x2="259.294" y1="219.422" y2="207.383" fill="none" stroke="#F3EEE2" stroke-miterlimit="10" stroke-width="2"/><line x1="249.648" x2="253.954" y1="219.422" y2="207.383" fill="none" stroke="#F3EEE2" stroke-miterlimit="10" stroke-width="2"/><line x1="244.311" x2="248.615" y1="219.422" y2="207.383" fill="none" stroke="#F3EEE2" stroke-miterlimit="10" stroke-width="2"/><line x1="238.971" x2="243.275" y1="219.422" y2="207.383" fill="none" stroke="#F3EEE2" stroke-miterlimit="10" stroke-width="2"/><line x1="233.63" x2="237.936" y1="219.422" y2="207.383" fill="none" stroke="#F3EEE2" stroke-miterlimit="10" stroke-width="2"/><line x1="228.29" x2="232.598" y1="219.422" y2="207.383" fill="none" stroke="#F3EEE2" stroke-miterlimit="10" stroke-width="2"/><line x1="222.951" x2="227.257" y1="219.422" y2="207.383" fill="none" stroke="#F3EEE2" stroke-miterlimit="10" stroke-width="2"/><line x1="217.611" x2="221.917" y1="219.422" y2="207.383" fill="none" stroke="#F3EEE2" stroke-miterlimit="10" stroke-width="2"/></g></g><g><rect id="SVGID_4_" width="44" height="11" x="223" y="208" fill="none" stroke="#F3EEE2" stroke-miterlimit="10" stroke-width="2"/></g></g><path fill="#0D5938" d="M89,134v44h114v-44H89z M114.214,146.17l-14.499-0.02l-0.003,2l14.5,0.02l-0.023,19l-14.5-0.02l0.032-26 l14.5,0.02L114.214,146.17z M134.214,146.193l-13.999-0.018l-0.003,2l14,0.018l-0.023,19l-14-0.018l0.032-26l14,0.018 L134.214,146.193z M191,167h-40v-26h40V167z"/><g><g><rect id="SVGID_74_" width="44" height="11" x="149" y="159" fill="#93908A"/></g><g><defs><rect id="SVGID_15_" width="44" height="11" x="149" y="159"/></defs><clipPath id="SVGID_16_"><use overflow="visible" xlink:href="#SVGID_15_"/></clipPath><g clip-path="url(#SVGID_16_)"><line x1="147.212" x2="142.906" y1="170.422" y2="158.383" fill="none" stroke="#F3EEE2" stroke-miterlimit="10" stroke-width="2"/><line x1="149.882" x2="145.575" y1="170.422" y2="158.383" fill="none" stroke="#F3EEE2" stroke-miterlimit="10" stroke-width="2"/><line x1="155.222" x2="150.915" y1="170.422" y2="158.383" fill="none" stroke="#F3EEE2" stroke-miterlimit="10" stroke-width="2"/><line x1="160.561" x2="156.255" y1="170.422" y2="158.383" fill="none" stroke="#F3EEE2" stroke-miterlimit="10" stroke-width="2"/><line x1="165.9" x2="161.595" y1="170.422" y2="158.383" fill="none" stroke="#F3EEE2" stroke-miterlimit="10" stroke-width="2"/><line x1="171.239" x2="166.934" y1="170.422" y2="158.383" fill="none" stroke="#F3EEE2" stroke-miterlimit="10" stroke-width="2"/><line x1="176.579" x2="172.273" y1="170.422" y2="158.383" fill="none" stroke="#F3EEE2" stroke-miterlimit="10" stroke-width="2"/><line x1="181.919" x2="177.613" y1="170.422" y2="158.383" fill="none" stroke="#F3EEE2" stroke-miterlimit="10" stroke-width="2"/><line x1="187.259" x2="182.952" y1="170.422" y2="158.383" fill="none" stroke="#F3EEE2" stroke-miterlimit="10" stroke-width="2"/><line x1="192.598" x2="188.292" y1="170.422" y2="158.383" fill="none" stroke="#F3EEE2" stroke-miterlimit="10" stroke-width="2"/><line x1="197.938" x2="193.632" y1="170.422" y2="158.383" fill="none" stroke="#F3EEE2" stroke-miterlimit="10" stroke-width="2"/></g></g><g><rect id="SVGID_5_" width="44" height="11" x="149" y="159" fill="none" stroke="#F3EEE2" stroke-miterlimit="10" stroke-width="2"/></g></g><path fill="#0D5938" d="M89,85v44h114V85H89z M177.328,92.17l14.5-0.02l0.032,26l-14.5,0.02l-0.023-19l14.5-0.02l-0.003-2 l-14.499,0.02L177.328,92.17z M157.328,92.193l14-0.018l0.032,26l-14,0.018l-0.023-19l14-0.018l-0.003-2l-13.999,0.018 L157.328,92.193z M101,92h40v26h-40V92z"/><g><g><rect id="SVGID_76_" width="44" height="11" x="99" y="110" fill="#93908A"/></g><g><defs><rect id="SVGID_17_" width="44" height="11" x="99" y="110"/></defs><clipPath id="SVGID_18_"><use overflow="visible" xlink:href="#SVGID_17_"/></clipPath><g clip-path="url(#SVGID_18_)"><line x1="144.337" x2="148.643" y1="121.422" y2="109.383" fill="none" stroke="#F3EEE2" stroke-miterlimit="10" stroke-width="2"/><line x1="141.667" x2="145.974" y1="121.422" y2="109.383" fill="none" stroke="#F3EEE2" stroke-miterlimit="10" stroke-width="2"/><line x1="136.327" x2="140.634" y1="121.422" y2="109.383" fill="none" stroke="#F3EEE2" stroke-miterlimit="10" stroke-width="2"/><line x1="130.988" x2="135.294" y1="121.422" y2="109.383" fill="none" stroke="#F3EEE2" stroke-miterlimit="10" stroke-width="2"/><line x1="125.648" x2="129.954" y1="121.422" y2="109.383" fill="none" stroke="#F3EEE2" stroke-miterlimit="10" stroke-width="2"/><line x1="120.31" x2="124.615" y1="121.422" y2="109.383" fill="none" stroke="#F3EEE2" stroke-miterlimit="10" stroke-width="2"/><line x1="114.97" x2="119.275" y1="121.422" y2="109.383" fill="none" stroke="#F3EEE2" stroke-miterlimit="10" stroke-width="2"/><line x1="109.63" x2="113.936" y1="121.422" y2="109.383" fill="none" stroke="#F3EEE2" stroke-miterlimit="10" stroke-width="2"/><line x1="104.29" x2="108.597" y1="121.422" y2="109.383" fill="none" stroke="#F3EEE2" stroke-miterlimit="10" stroke-width="2"/><line x1="98.951" x2="103.257" y1="121.422" y2="109.383" fill="none" stroke="#F3EEE2" stroke-miterlimit="10" stroke-width="2"/><line x1="93.611" x2="97.917" y1="121.422" y2="109.383" fill="none" stroke="#F3EEE2" stroke-miterlimit="10" stroke-width="2"/></g></g><g><rect id="SVGID_6_" width="44" height="11" x="99" y="110" fill="none" stroke="#F3EEE2" stroke-miterlimit="10" stroke-width="2"/></g></g><line x1="212" x2="328" y1="166" y2="166" fill="none" stroke="#A0AEA6" stroke-miterlimit="10" stroke-width="2"/><line x1="212" x2="328" y1="178" y2="178" fill="none" stroke="#A0AEA6" stroke-miterlimit="10" stroke-width="2"/><line x1="327" x2="327" y1="179" y2="166" fill="none" stroke="#A0AEA6" stroke-miterlimit="10" stroke-width="2"/><line x1="322" x2="322" y1="179" y2="166" fill="none" stroke="#A0AEA6" stroke-miterlimit="10" stroke-width="2"/><line x1="317" x2="317" y1="179" y2="166" fill="none" stroke="#A0AEA6" stroke-miterlimit="10" stroke-width="2"/><line x1="312" x2="312" y1="179" y2="166" fill="none" stroke="#A0AEA6" stroke-miterlimit="10" stroke-width="2"/><line x1="307" x2="307" y1="179" y2="166" fill="none" stroke="#A0AEA6" stroke-miterlimit="10" stroke-width="2"/><line x1="302" x2="302" y1="179" y2="166" fill="none" stroke="#A0AEA6" stroke-miterlimit="10" stroke-width="2"/><line x1="297" x2="297" y1="179" y2="166" fill="none" stroke="#A0AEA6" stroke-miterlimit="10" stroke-width="2"/><line x1="292" x2="292" y1="179" y2="166" fill="none" stroke="#A0AEA6" stroke-miterlimit="10" stroke-width="2"/><line x1="287" x2="287" y1="179" y2="166" fill="none" stroke="#A0AEA6" stroke-miterlimit="10" stroke-width="2"/><line x1="277" x2="277" y1="179" y2="166" fill="none" stroke="#A0AEA6" stroke-miterlimit="10" stroke-width="2"/><line x1="268" x2="268" y1="179" y2="166" fill="none" stroke="#A0AEA6" stroke-miterlimit="10" stroke-width="2"/><line x1="253" x2="253" y1="179" y2="166" fill="none" stroke="#A0AEA6" stroke-miterlimit="10" stroke-width="2"/><line x1="258" x2="258" y1="179" y2="166" fill="none" stroke="#A0AEA6" stroke-miterlimit="10" stroke-width="2"/><line x1="243" x2="243" y1="179" y2="166" fill="none" stroke="#A0AEA6" stroke-miterlimit="10" stroke-width="2"/><line x1="233" x2="233" y1="179" y2="166" fill="none" stroke="#A0AEA6" stroke-miterlimit="10" stroke-width="2"/><line x1="223" x2="223" y1="179" y2="166" fill="none" stroke="#A0AEA6" stroke-miterlimit="10" stroke-width="2"/><line x1="282" x2="282" y1="179" y2="166" fill="none" stroke="#A0AEA6" stroke-miterlimit="10" stroke-width="2"/><line x1="272" x2="272" y1="179" y2="166" fill="none" stroke="#A0AEA6" stroke-miterlimit="10" stroke-width="2"/><line x1="263" x2="263" y1="179" y2="166" fill="none" stroke="#A0AEA6" stroke-miterlimit="10" stroke-width="2"/><line x1="248" x2="248" y1="179" y2="166" fill="none" stroke="#A0AEA6" stroke-miterlimit="10" stroke-width="2"/><line x1="238" x2="238" y1="179" y2="166" fill="none" stroke="#A0AEA6" stroke-miterlimit="10" stroke-width="2"/><line x1="228" x2="228" y1="179" y2="166" fill="none" stroke="#A0AEA6" stroke-miterlimit="10" stroke-width="2"/><line x1="218" x2="218" y1="179" y2="166" fill="none" stroke="#A0AEA6" stroke-miterlimit="10" stroke-width="2"/><line x1="213" x2="213" y1="179" y2="166" fill="none" stroke="#A0AEA6" stroke-miterlimit="10" stroke-width="2"/><rect width="2" height="16" x="222" y="161" fill="none" stroke="#A0AEA6" stroke-miterlimit="10" stroke-width="2"/><path fill="#37490C" d="M215.205,153.348c0-8.807,3.695-30.562,8.255-30.562s8.254,21.756,8.254,30.562 c0,8.806-3.694,9.301-8.254,9.301C218.9,162.648,215.205,162.154,215.205,153.348z"/><rect width="1" height="16" x="234" y="161" fill="none" stroke="#A0AEA6" stroke-miterlimit="10" stroke-width="2"/><path fill="#37490C" d="M226.705,155.402c0-6.863,3.695-23.812,8.255-23.812s8.254,16.949,8.254,23.812 c0,6.861-3.694,7.246-8.254,7.246S226.705,162.264,226.705,155.402z"/></g></g></svg>